<?xml version="1.0" encoding="utf-8" standalone="no"?>
<!DOCTYPE svg PUBLIC "-//W3C//DTD SVG 1.1//EN"
  "http://www.w3.org/Graphics/SVG/1.1/DTD/svg11.dtd">
<!-- Created with matplotlib (https://matplotlib.org/) -->
<svg height="301.332041pt" version="1.1" viewBox="0 0 456.487812 301.332041" width="456.487812pt" xmlns="http://www.w3.org/2000/svg" xmlns:xlink="http://www.w3.org/1999/xlink">
 <defs>
  <style type="text/css">
*{stroke-linecap:butt;stroke-linejoin:round;}
  </style>
 </defs>
 <g id="figure_1">
  <g id="patch_1">
   <path d="M 0 301.332041 
L 456.487812 301.332041 
L 456.487812 0 
L 0 0 
z
" style="fill:#ffffff;"/>
  </g>
  <g id="axes_1">
   <g id="LineCollection_1">
    <path clip-path="url(#pd955fdc27a)" d="M 88.938414 130.007288 
L 88.938414 20.60241 
" style="fill:none;stroke:#ff1493;stroke-width:3;"/>
    <path clip-path="url(#pd955fdc27a)" d="M 128.162742 130.007288 
L 128.162742 20.60241 
" style="fill:none;stroke:#ff1493;stroke-width:3;"/>
    <path clip-path="url(#pd955fdc27a)" d="M 173.174266 130.007288 
L 173.174266 20.60241 
" style="fill:none;stroke:#ff1493;stroke-width:3;"/>
    <path clip-path="url(#pd955fdc27a)" d="M 216.899746 130.007288 
L 216.899746 20.60241 
" style="fill:none;stroke:#ff1493;stroke-width:3;"/>
    <path clip-path="url(#pd955fdc27a)" d="M 261.268248 130.007288 
L 261.268248 20.60241 
" style="fill:none;stroke:#ff1493;stroke-width:3;"/>
    <path clip-path="url(#pd955fdc27a)" d="M 306.922793 130.007288 
L 306.922793 20.60241 
" style="fill:none;stroke:#ff1493;stroke-width:3;"/>
    <path clip-path="url(#pd955fdc27a)" d="M 357.078491 130.007288 
L 357.078491 20.60241 
" style="fill:none;stroke:#ff1493;stroke-width:3;"/>
    <path clip-path="url(#pd955fdc27a)" d="M 414.95045 130.007288 
L 414.95045 20.60241 
" style="fill:none;stroke:#ff1493;stroke-width:3;"/>
   </g>
   <g id="line2d_1">
    <path clip-path="url(#pd955fdc27a)" d="M 65.789631 99.971731 
L 66.432652 100.26193 
L 67.075674 99.536433 
L 67.718696 98.375639 
L 68.361718 98.230539 
L 69.647761 94.167759 
L 70.290783 93.152064 
L 70.933805 92.716766 
L 71.576827 91.991269 
L 72.219848 92.136369 
L 73.505892 90.104978 
L 74.148914 90.540276 
L 75.434957 90.540276 
L 76.077979 90.975574 
L 76.721001 90.830475 
L 77.364022 90.830475 
L 78.007044 91.555971 
L 78.650066 93.297163 
L 79.293088 92.716766 
L 79.93611 92.716766 
L 81.222153 93.006964 
L 81.865175 92.136369 
L 82.508197 92.426567 
L 83.151218 93.006964 
L 83.79424 91.555971 
L 84.437262 91.265773 
L 85.080284 91.991269 
L 85.723305 91.265773 
L 86.366327 93.442262 
L 87.009349 94.603057 
L 87.652371 99.391334 
L 88.295393 48.026179 
L 88.938414 24.520091 
L 89.581436 50.202669 
L 90.224458 88.218687 
L 90.86748 109.693385 
L 91.510501 115.642456 
L 92.153523 115.932655 
L 92.796545 111.869874 
L 94.082588 110.273782 
L 94.72561 108.53259 
L 96.011654 106.646299 
L 97.297697 102.583519 
L 97.940719 102.873717 
L 98.583741 102.003121 
L 99.226763 102.003121 
L 99.869784 102.438419 
L 101.155828 101.132526 
L 101.79885 101.567824 
L 103.727915 97.359944 
L 104.370937 96.634447 
L 105.013958 94.457957 
L 106.300002 91.555971 
L 106.943024 93.152064 
L 107.586046 90.395177 
L 108.229067 90.104978 
L 108.872089 89.959879 
L 109.515111 91.701071 
L 110.158133 90.104978 
L 110.801154 89.524581 
L 111.444176 90.104978 
L 112.087198 90.104978 
L 112.73022 90.685375 
L 113.373241 90.250078 
L 114.016263 90.685375 
L 114.659285 91.84617 
L 115.302307 90.975574 
L 115.945329 90.395177 
L 116.58835 92.136369 
L 117.231372 92.571666 
L 117.874394 92.426567 
L 118.517416 94.02266 
L 119.160437 94.167759 
L 119.803459 95.038355 
L 120.446481 94.02266 
L 121.089503 94.02266 
L 121.732524 92.861865 
L 122.375546 92.571666 
L 123.018568 93.297163 
L 123.66159 92.571666 
L 124.304611 93.297163 
L 124.947633 93.732461 
L 125.590655 92.136369 
L 126.233677 95.038355 
L 126.876699 103.309015 
L 128.162742 22.198502 
L 128.805764 41.786909 
L 129.448786 79.367629 
L 130.091807 109.258087 
L 130.734829 114.336563 
L 131.377851 115.352258 
L 132.020873 114.191463 
L 132.663894 112.450272 
L 133.306916 110.273782 
L 133.949938 109.838484 
L 135.235982 106.065902 
L 135.879003 105.775703 
L 137.165047 102.29332 
L 137.808069 103.018817 
L 138.45109 102.29332 
L 139.094112 103.163916 
L 139.737134 103.163916 
L 140.380156 101.712923 
L 141.023177 101.132526 
L 141.666199 101.132526 
L 142.309221 99.826632 
L 142.952243 99.391334 
L 143.595264 97.214844 
L 144.238286 95.618752 
L 144.881308 93.297163 
L 145.52433 94.02266 
L 146.167352 90.830475 
L 146.810373 90.685375 
L 147.453395 91.120673 
L 148.096417 92.136369 
L 148.739439 91.410872 
L 149.38246 89.81478 
L 150.025482 90.830475 
L 150.668504 90.975574 
L 151.311526 90.830475 
L 151.954547 89.959879 
L 152.597569 90.685375 
L 153.240591 90.830475 
L 153.883613 90.250078 
L 154.526635 91.555971 
L 155.169656 90.685375 
L 155.812678 90.685375 
L 156.4557 92.426567 
L 157.098722 90.540276 
L 157.741743 92.281468 
L 158.384765 93.297163 
L 159.027787 91.84617 
L 159.670809 92.136369 
L 160.31383 92.571666 
L 161.599874 93.732461 
L 162.885917 93.732461 
L 163.528939 94.893255 
L 164.171961 94.893255 
L 164.814983 95.183454 
L 165.458005 94.603057 
L 166.101026 93.732461 
L 166.744048 95.328553 
L 167.38707 92.861865 
L 168.030092 92.426567 
L 169.316135 93.732461 
L 169.959157 92.571666 
L 170.602179 93.732461 
L 171.2452 94.457957 
L 171.888222 98.810937 
L 172.531244 90.250078 
L 173.174266 36.418234 
L 173.817288 36.708433 
L 174.460309 62.826308 
L 175.103331 98.375639 
L 175.746353 111.724775 
L 176.389375 114.046364 
L 177.032396 115.207158 
L 177.675418 112.74047 
L 178.31844 109.112988 
L 178.961462 108.967888 
L 179.604483 108.67769 
L 180.247505 106.356101 
L 180.890527 105.050207 
L 181.533549 106.791399 
L 182.176571 104.46981 
L 182.819592 101.567824 
L 183.462614 100.552128 
L 184.105636 102.583519 
L 184.748658 100.842327 
L 185.391679 99.826632 
L 186.034701 100.552128 
L 186.677723 99.536433 
L 187.320745 99.101135 
L 187.963766 98.810937 
L 188.606788 97.214844 
L 189.24981 95.183454 
L 189.892832 94.893255 
L 190.535853 93.87756 
L 191.178875 93.442262 
L 191.821897 94.457957 
L 192.464919 94.457957 
L 193.107941 94.167759 
L 193.750962 93.297163 
L 194.393984 92.861865 
L 195.037006 94.748156 
L 195.680028 94.02266 
L 196.323049 93.87756 
L 196.966071 94.02266 
L 197.609093 91.84617 
L 198.252115 91.265773 
L 198.895136 91.991269 
L 199.538158 92.426567 
L 200.18118 93.297163 
L 200.824202 93.297163 
L 201.467224 94.167759 
L 202.110245 94.02266 
L 203.396289 93.442262 
L 204.039311 94.603057 
L 204.682332 93.442262 
L 205.968376 93.442262 
L 207.254419 95.908951 
L 207.897441 96.05405 
L 208.540463 95.908951 
L 209.183485 95.183454 
L 209.826506 93.732461 
L 210.469528 94.02266 
L 211.11255 93.87756 
L 211.755572 94.312858 
L 212.398594 94.167759 
L 213.041615 93.006964 
L 213.684637 94.748156 
L 214.327659 95.763851 
L 214.970681 94.893255 
L 215.613702 99.971731 
L 216.256724 79.657828 
L 216.899746 24.084793 
L 217.542768 33.371149 
L 218.185789 70.95187 
L 218.828811 99.246235 
L 220.114855 125.944507 
L 220.757877 105.630604 
L 221.400898 106.646299 
L 222.04392 109.258087 
L 222.686942 104.46981 
L 223.329964 130.007288 
L 224.616007 87.928489 
L 225.259029 95.328553 
L 225.902051 99.826632 
L 226.545072 100.407029 
L 227.188094 101.858022 
L 227.831116 102.873717 
L 228.474138 100.697228 
L 229.117159 105.775703 
L 229.760181 102.148221 
L 230.403203 101.422724 
L 231.046225 101.422724 
L 231.689247 92.716766 
L 232.332268 95.618752 
L 232.97529 95.908951 
L 233.618312 94.603057 
L 234.261334 95.328553 
L 234.904355 99.246235 
L 235.547377 88.363787 
L 236.190399 88.944184 
L 236.833421 87.928489 
L 237.476442 87.202992 
L 238.119464 90.395177 
L 238.762486 90.250078 
L 239.405508 91.410872 
L 240.04853 92.136369 
L 240.691551 91.120673 
L 241.334573 91.265773 
L 241.977595 90.830475 
L 242.620617 93.732461 
L 243.263638 94.457957 
L 243.90666 87.928489 
L 244.549682 88.799084 
L 245.192704 91.265773 
L 245.835725 91.991269 
L 246.478747 91.84617 
L 247.121769 92.571666 
L 247.764791 98.375639 
L 248.407813 91.991269 
L 249.050834 93.587362 
L 249.693856 102.148221 
L 250.336878 89.379482 
L 250.9799 89.379482 
L 251.622921 90.830475 
L 252.265943 94.748156 
L 252.908965 95.328553 
L 253.551987 97.214844 
L 254.195008 105.485505 
L 254.83803 86.622595 
L 255.481052 88.363787 
L 256.124074 92.716766 
L 256.767095 91.84617 
L 257.410117 93.732461 
L 258.053139 96.05405 
L 258.696161 95.038355 
L 259.339183 98.08544 
L 259.982204 95.183454 
L 260.625226 35.692738 
L 261.268248 20.60241 
L 261.91127 51.073264 
L 262.554291 92.136369 
L 263.197313 115.497357 
L 263.840335 118.97974 
L 264.483357 118.399343 
L 265.126378 116.803251 
L 266.412422 112.450272 
L 267.055444 110.999279 
L 267.698466 109.258087 
L 268.984509 106.791399 
L 270.270553 104.034512 
L 270.913574 104.179611 
L 271.556596 103.744313 
L 272.199618 103.744313 
L 272.84264 103.018817 
L 273.485661 102.873717 
L 274.128683 103.018817 
L 274.771705 101.567824 
L 276.70077 98.375639 
L 277.343792 97.214844 
L 277.986814 96.344248 
L 278.629836 98.956036 
L 279.272857 87.348091 
L 279.915879 87.202992 
L 281.201923 90.395177 
L 281.844944 90.975574 
L 283.130988 90.975574 
L 283.77401 91.410872 
L 284.417031 91.410872 
L 285.060053 91.701071 
L 285.703075 91.120673 
L 286.346097 90.975574 
L 287.63214 92.861865 
L 288.275162 91.410872 
L 288.918184 91.84617 
L 290.204227 92.861865 
L 290.847249 92.861865 
L 291.490271 93.587362 
L 292.776314 93.587362 
L 293.419336 94.167759 
L 294.062358 94.457957 
L 294.70538 93.587362 
L 295.991423 94.893255 
L 296.634445 95.908951 
L 297.920489 96.924646 
L 298.56351 95.328553 
L 299.206532 95.183454 
L 299.849554 94.748156 
L 300.492576 94.748156 
L 301.135597 94.167759 
L 301.778619 94.02266 
L 302.421641 94.02266 
L 303.064663 94.167759 
L 303.707684 94.457957 
L 304.350706 94.603057 
L 304.993728 95.473653 
L 305.63675 101.567824 
L 306.279772 52.379158 
L 306.922793 20.60241 
L 307.565815 43.6732 
L 308.208837 81.39902 
L 308.851859 110.999279 
L 309.49488 118.399343 
L 310.137902 117.818946 
L 310.780924 116.077754 
L 311.423946 114.91696 
L 313.996033 107.516895 
L 314.639054 106.065902 
L 315.282076 105.050207 
L 315.925098 104.614909 
L 316.56812 103.599214 
L 317.211142 102.873717 
L 319.140207 102.438419 
L 319.783229 102.583519 
L 321.069272 101.277625 
L 321.712294 99.971731 
L 322.355316 98.375639 
L 322.998337 96.05405 
L 324.284381 92.136369 
L 324.927403 90.975574 
L 325.570425 89.524581 
L 326.213446 88.653985 
L 326.856468 88.363787 
L 327.49949 89.234382 
L 328.142512 89.089283 
L 328.785533 89.81478 
L 329.428555 89.81478 
L 330.071577 90.250078 
L 330.714599 89.66968 
L 331.35762 89.524581 
L 332.000642 89.81478 
L 332.643664 89.524581 
L 333.929708 89.524581 
L 334.572729 90.250078 
L 335.215751 91.265773 
L 335.858773 91.120673 
L 337.144816 92.136369 
L 337.787838 92.136369 
L 338.43086 91.84617 
L 339.073882 92.571666 
L 340.359925 92.571666 
L 341.002947 92.861865 
L 341.645969 93.006964 
L 342.28899 93.006964 
L 342.932012 94.893255 
L 343.575034 94.457957 
L 344.218056 91.84617 
L 344.861078 92.571666 
L 345.504099 94.457957 
L 346.147121 93.732461 
L 346.790143 94.748156 
L 347.433165 96.05405 
L 348.076186 95.618752 
L 348.719208 96.199149 
L 349.36223 95.328553 
L 350.005252 94.167759 
L 350.648273 93.297163 
L 351.291295 93.297163 
L 351.934317 93.87756 
L 352.577339 93.152064 
L 353.863382 94.02266 
L 354.506404 94.02266 
L 355.149426 94.748156 
L 355.792448 100.26193 
L 356.435469 49.622271 
L 357.078491 20.60241 
L 357.721513 38.014327 
L 358.364535 80.093126 
L 359.007556 112.74047 
L 359.650578 119.12484 
L 360.2936 118.834641 
L 360.936622 117.383648 
L 362.865687 112.014974 
L 364.151731 108.67769 
L 364.794752 108.242392 
L 365.437774 105.340406 
L 366.080796 103.889412 
L 366.723818 104.179611 
L 367.366839 103.744313 
L 368.009861 103.454115 
L 369.295905 102.583519 
L 370.581948 103.163916 
L 371.867992 101.858022 
L 372.511014 99.536433 
L 373.154035 96.634447 
L 373.797057 95.618752 
L 374.440079 93.587362 
L 375.083101 91.120673 
L 375.726122 89.66968 
L 376.369144 89.524581 
L 377.012166 89.089283 
L 377.655188 89.089283 
L 378.941231 89.959879 
L 379.584253 90.104978 
L 380.227275 89.959879 
L 380.870296 89.959879 
L 381.513318 90.104978 
L 382.15634 89.524581 
L 382.799362 90.250078 
L 383.442384 90.395177 
L 384.085405 89.959879 
L 384.728427 90.830475 
L 385.371449 90.540276 
L 386.657492 91.84617 
L 387.300514 91.265773 
L 388.586558 92.861865 
L 389.229579 92.426567 
L 389.872601 92.861865 
L 391.158645 92.571666 
L 392.444688 93.732461 
L 393.08771 93.297163 
L 393.730732 94.457957 
L 394.373754 93.732461 
L 395.016775 93.297163 
L 395.659797 94.167759 
L 396.302819 93.587362 
L 396.945841 94.603057 
L 397.588862 95.038355 
L 398.231884 94.748156 
L 398.874906 94.603057 
L 399.517928 94.748156 
L 400.16095 94.603057 
L 400.803971 95.038355 
L 401.446993 94.893255 
L 402.090015 95.618752 
L 402.733037 94.748156 
L 403.376058 94.603057 
L 404.01908 94.603057 
L 404.662102 94.893255 
L 405.305124 95.763851 
L 405.948145 95.618752 
L 406.591167 95.183454 
L 407.234189 94.167759 
L 407.877211 94.167759 
L 408.520232 94.02266 
L 409.163254 93.152064 
L 409.806276 93.87756 
L 410.449298 93.87756 
L 411.09232 93.732461 
L 411.735341 94.02266 
L 412.378363 93.587362 
L 413.021385 95.618752 
L 413.664407 101.567824 
L 414.307428 52.814456 
L 414.95045 23.649495 
L 415.593472 49.477172 
L 416.236494 84.301006 
L 416.879515 109.983583 
L 417.522537 115.932655 
L 418.165559 115.352258 
L 418.808581 114.191463 
L 419.451603 112.595371 
L 420.737646 108.822789 
L 421.380668 107.371796 
L 422.02369 106.791399 
L 422.666711 105.630604 
L 423.309733 104.905108 
L 423.952755 103.599214 
L 424.595777 103.454115 
L 425.238798 102.29332 
L 425.88182 102.438419 
L 426.524842 101.712923 
L 427.167864 101.712923 
L 427.810885 101.567824 
L 428.453907 101.712923 
L 429.096929 100.407029 
L 429.739951 100.407029 
L 430.382973 99.681533 
L 431.025994 96.924646 
L 431.025994 96.924646 
" style="fill:none;stroke:#1f77b4;stroke-linecap:square;stroke-width:2.5;"/>
   </g>
   <g id="text_1">
    <!-- 0.61 -->
    <defs>
     <path d="M 46 36.53125 
Q 46 50.203125 43.4375 55.78125 
Q 40.875 61.375 34.8125 61.375 
Q 28.765625 61.375 26.171875 55.78125 
Q 23.578125 50.203125 23.578125 36.53125 
Q 23.578125 22.703125 26.171875 17.03125 
Q 28.765625 11.375 34.8125 11.375 
Q 40.828125 11.375 43.40625 17.03125 
Q 46 22.703125 46 36.53125 
z
M 64.796875 36.375 
Q 64.796875 18.265625 56.984375 8.421875 
Q 49.171875 -1.421875 34.8125 -1.421875 
Q 20.40625 -1.421875 12.59375 8.421875 
Q 4.78125 18.265625 4.78125 36.375 
Q 4.78125 54.546875 12.59375 64.375 
Q 20.40625 74.21875 34.8125 74.21875 
Q 49.171875 74.21875 56.984375 64.375 
Q 64.796875 54.546875 64.796875 36.375 
z
" id="DejaVuSans-Bold-48"/>
     <path d="M 10.203125 18.890625 
L 27.78125 18.890625 
L 27.78125 0 
L 10.203125 0 
z
" id="DejaVuSans-Bold-46"/>
     <path d="M 36.1875 35.984375 
Q 31.25 35.984375 28.78125 32.78125 
Q 26.3125 29.59375 26.3125 23.1875 
Q 26.3125 16.796875 28.78125 13.59375 
Q 31.25 10.40625 36.1875 10.40625 
Q 41.15625 10.40625 43.625 13.59375 
Q 46.09375 16.796875 46.09375 23.1875 
Q 46.09375 29.59375 43.625 32.78125 
Q 41.15625 35.984375 36.1875 35.984375 
z
M 59.421875 71 
L 59.421875 57.515625 
Q 54.78125 59.71875 50.671875 60.765625 
Q 46.578125 61.8125 42.671875 61.8125 
Q 34.28125 61.8125 29.59375 57.140625 
Q 24.90625 52.484375 24.125 43.3125 
Q 27.34375 45.703125 31.09375 46.890625 
Q 34.859375 48.09375 39.3125 48.09375 
Q 50.484375 48.09375 57.34375 41.546875 
Q 64.203125 35.015625 64.203125 24.421875 
Q 64.203125 12.703125 56.53125 5.640625 
Q 48.875 -1.421875 35.984375 -1.421875 
Q 21.78125 -1.421875 13.984375 8.171875 
Q 6.203125 17.78125 6.203125 35.40625 
Q 6.203125 53.46875 15.3125 63.796875 
Q 24.421875 74.125 40.28125 74.125 
Q 45.3125 74.125 50.046875 73.34375 
Q 54.78125 72.5625 59.421875 71 
z
" id="DejaVuSans-Bold-54"/>
     <path d="M 11.71875 12.984375 
L 28.328125 12.984375 
L 28.328125 60.109375 
L 11.28125 56.59375 
L 11.28125 69.390625 
L 28.21875 72.90625 
L 46.09375 72.90625 
L 46.09375 12.984375 
L 62.703125 12.984375 
L 62.703125 0 
L 11.71875 0 
z
" id="DejaVuSans-Bold-49"/>
    </defs>
    <g transform="translate(96.214641 14.798437)scale(0.1 -0.1)">
     <use xlink:href="#DejaVuSans-Bold-48"/>
     <use x="69.580078" xlink:href="#DejaVuSans-Bold-46"/>
     <use x="107.568359" xlink:href="#DejaVuSans-Bold-54"/>
     <use x="177.148438" xlink:href="#DejaVuSans-Bold-49"/>
    </g>
   </g>
   <g id="text_2">
    <!-- 0.70 -->
    <defs>
     <path d="M 6.6875 72.90625 
L 61.625 72.90625 
L 61.625 62.3125 
L 33.203125 0 
L 14.890625 0 
L 41.796875 59.078125 
L 6.6875 59.078125 
z
" id="DejaVuSans-Bold-55"/>
    </defs>
    <g transform="translate(138.332566 14.798437)scale(0.1 -0.1)">
     <use xlink:href="#DejaVuSans-Bold-48"/>
     <use x="69.580078" xlink:href="#DejaVuSans-Bold-46"/>
     <use x="107.568359" xlink:href="#DejaVuSans-Bold-55"/>
     <use x="177.148438" xlink:href="#DejaVuSans-Bold-48"/>
    </g>
   </g>
   <g id="text_3">
    <!-- 0.68 -->
    <defs>
     <path d="M 34.8125 32.625 
Q 29.546875 32.625 26.703125 29.734375 
Q 23.875 26.859375 23.875 21.484375 
Q 23.875 16.109375 26.703125 13.25 
Q 29.546875 10.40625 34.8125 10.40625 
Q 40.046875 10.40625 42.828125 13.25 
Q 45.609375 16.109375 45.609375 21.484375 
Q 45.609375 26.90625 42.828125 29.765625 
Q 40.046875 32.625 34.8125 32.625 
z
M 21.09375 38.8125 
Q 14.453125 40.828125 11.078125 44.96875 
Q 7.71875 49.125 7.71875 55.328125 
Q 7.71875 64.546875 14.59375 69.375 
Q 21.484375 74.21875 34.8125 74.21875 
Q 48.046875 74.21875 54.921875 69.40625 
Q 61.8125 64.59375 61.8125 55.328125 
Q 61.8125 49.125 58.421875 44.96875 
Q 55.03125 40.828125 48.390625 38.8125 
Q 55.8125 36.765625 59.59375 32.15625 
Q 63.375 27.546875 63.375 20.515625 
Q 63.375 9.671875 56.171875 4.125 
Q 48.96875 -1.421875 34.8125 -1.421875 
Q 20.609375 -1.421875 13.359375 4.125 
Q 6.109375 9.671875 6.109375 20.515625 
Q 6.109375 27.546875 9.890625 32.15625 
Q 13.671875 36.765625 21.09375 38.8125 
z
M 25.484375 53.421875 
Q 25.484375 49.078125 27.90625 46.734375 
Q 30.328125 44.390625 34.8125 44.390625 
Q 39.203125 44.390625 41.59375 46.734375 
Q 44 49.078125 44 53.421875 
Q 44 57.765625 41.59375 60.078125 
Q 39.203125 62.40625 34.8125 62.40625 
Q 30.328125 62.40625 27.90625 60.0625 
Q 25.484375 57.71875 25.484375 53.421875 
z
" id="DejaVuSans-Bold-56"/>
    </defs>
    <g transform="translate(182.701068 14.798437)scale(0.1 -0.1)">
     <use xlink:href="#DejaVuSans-Bold-48"/>
     <use x="69.580078" xlink:href="#DejaVuSans-Bold-46"/>
     <use x="107.568359" xlink:href="#DejaVuSans-Bold-54"/>
     <use x="177.148438" xlink:href="#DejaVuSans-Bold-56"/>
    </g>
   </g>
   <g id="text_4">
    <!-- 0.69 -->
    <defs>
     <path d="M 10.015625 1.609375 
L 10.015625 15.09375 
Q 14.5 12.984375 18.59375 11.9375 
Q 22.703125 10.890625 26.703125 10.890625 
Q 35.109375 10.890625 39.796875 15.546875 
Q 44.484375 20.21875 45.3125 29.390625 
Q 42 26.953125 38.234375 25.734375 
Q 34.46875 24.515625 30.078125 24.515625 
Q 18.890625 24.515625 12.03125 31.03125 
Q 5.171875 37.546875 5.171875 48.1875 
Q 5.171875 59.96875 12.8125 67.046875 
Q 20.453125 74.125 33.296875 74.125 
Q 47.5625 74.125 55.375 64.5 
Q 63.1875 54.890625 63.1875 37.3125 
Q 63.1875 19.234375 54.046875 8.90625 
Q 44.921875 -1.421875 29 -1.421875 
Q 23.875 -1.421875 19.1875 -0.65625 
Q 14.5 0.09375 10.015625 1.609375 
z
M 33.203125 36.71875 
Q 38.140625 36.71875 40.625 39.90625 
Q 43.109375 43.109375 43.109375 49.515625 
Q 43.109375 55.859375 40.625 59.078125 
Q 38.140625 62.3125 33.203125 62.3125 
Q 28.265625 62.3125 25.78125 59.078125 
Q 23.296875 55.859375 23.296875 49.515625 
Q 23.296875 43.109375 25.78125 39.90625 
Q 28.265625 36.71875 33.203125 36.71875 
z
" id="DejaVuSans-Bold-57"/>
    </defs>
    <g transform="translate(226.748059 14.798437)scale(0.1 -0.1)">
     <use xlink:href="#DejaVuSans-Bold-48"/>
     <use x="69.580078" xlink:href="#DejaVuSans-Bold-46"/>
     <use x="107.568359" xlink:href="#DejaVuSans-Bold-54"/>
     <use x="177.148438" xlink:href="#DejaVuSans-Bold-57"/>
    </g>
   </g>
   <g id="text_5">
    <!-- 0.71 -->
    <g transform="translate(271.759583 14.798437)scale(0.1 -0.1)">
     <use xlink:href="#DejaVuSans-Bold-48"/>
     <use x="69.580078" xlink:href="#DejaVuSans-Bold-46"/>
     <use x="107.568359" xlink:href="#DejaVuSans-Bold-55"/>
     <use x="177.148438" xlink:href="#DejaVuSans-Bold-49"/>
    </g>
   </g>
   <g id="text_6">
    <!-- 0.78 -->
    <g transform="translate(319.664705 14.798437)scale(0.1 -0.1)">
     <use xlink:href="#DejaVuSans-Bold-48"/>
     <use x="69.580078" xlink:href="#DejaVuSans-Bold-46"/>
     <use x="107.568359" xlink:href="#DejaVuSans-Bold-55"/>
     <use x="177.148438" xlink:href="#DejaVuSans-Bold-56"/>
    </g>
   </g>
   <g id="text_7">
    <!-- 0.90 -->
    <g transform="translate(373.678533 14.798437)scale(0.1 -0.1)">
     <use xlink:href="#DejaVuSans-Bold-48"/>
     <use x="69.580078" xlink:href="#DejaVuSans-Bold-46"/>
     <use x="107.568359" xlink:href="#DejaVuSans-Bold-57"/>
     <use x="177.148438" xlink:href="#DejaVuSans-Bold-48"/>
    </g>
   </g>
   <g id="legend_1">
    <g id="patch_2">
     <path d="M 17.614672 34.215386 
L 81.872813 34.215386 
Q 83.538813 34.215386 83.538813 32.549386 
L 83.538813 8.928629 
Q 83.538813 7.262629 81.872813 7.262629 
L 17.614672 7.262629 
Q 15.948672 7.262629 15.948672 8.928629 
L 15.948672 32.549386 
Q 15.948672 34.215386 17.614672 34.215386 
z
" style="fill:#ffffff;opacity:0.8;stroke:#cccccc;stroke-linejoin:miter;"/>
    </g>
    <g id="line2d_2">
     <path d="M 19.280672 14.008628 
L 35.940672 14.008628 
" style="fill:none;stroke:#1f77b4;stroke-linecap:square;stroke-width:2.5;"/>
    </g>
    <g id="line2d_3"/>
    <g id="text_8">
     <!-- ECG -->
     <defs>
      <path d="M 9.1875 72.90625 
L 59.90625 72.90625 
L 59.90625 58.6875 
L 27.984375 58.6875 
L 27.984375 45.125 
L 58.015625 45.125 
L 58.015625 30.90625 
L 27.984375 30.90625 
L 27.984375 14.203125 
L 60.984375 14.203125 
L 60.984375 0 
L 9.1875 0 
z
" id="DejaVuSans-Bold-69"/>
      <path d="M 67 4 
Q 61.8125 1.3125 56.203125 -0.046875 
Q 50.59375 -1.421875 44.484375 -1.421875 
Q 26.265625 -1.421875 15.625 8.765625 
Q 4.984375 18.953125 4.984375 36.375 
Q 4.984375 53.859375 15.625 64.03125 
Q 26.265625 74.21875 44.484375 74.21875 
Q 50.59375 74.21875 56.203125 72.84375 
Q 61.8125 71.484375 67 68.796875 
L 67 53.71875 
Q 61.765625 57.28125 56.6875 58.9375 
Q 51.609375 60.59375 46 60.59375 
Q 35.9375 60.59375 30.171875 54.140625 
Q 24.421875 47.703125 24.421875 36.375 
Q 24.421875 25.09375 30.171875 18.640625 
Q 35.9375 12.203125 46 12.203125 
Q 51.609375 12.203125 56.6875 13.859375 
Q 61.765625 15.53125 67 19.09375 
z
" id="DejaVuSans-Bold-67"/>
      <path d="M 74.703125 5.421875 
Q 67.671875 2 60.109375 0.28125 
Q 52.546875 -1.421875 44.484375 -1.421875 
Q 26.265625 -1.421875 15.625 8.765625 
Q 4.984375 18.953125 4.984375 36.375 
Q 4.984375 54 15.8125 64.109375 
Q 26.65625 74.21875 45.515625 74.21875 
Q 52.78125 74.21875 59.4375 72.84375 
Q 66.109375 71.484375 72.015625 68.796875 
L 72.015625 53.71875 
Q 65.921875 57.171875 59.890625 58.875 
Q 53.859375 60.59375 47.796875 60.59375 
Q 36.578125 60.59375 30.5 54.3125 
Q 24.421875 48.046875 24.421875 36.375 
Q 24.421875 24.8125 30.28125 18.5 
Q 36.140625 12.203125 46.921875 12.203125 
Q 49.859375 12.203125 52.375 12.5625 
Q 54.890625 12.9375 56.890625 13.71875 
L 56.890625 27.875 
L 45.40625 27.875 
L 45.40625 40.484375 
L 74.703125 40.484375 
z
" id="DejaVuSans-Bold-71"/>
     </defs>
     <g transform="translate(42.604672 16.924128)scale(0.0833 -0.0833)">
      <use xlink:href="#DejaVuSans-Bold-69"/>
      <use x="68.310547" xlink:href="#DejaVuSans-Bold-67"/>
      <use x="141.699219" xlink:href="#DejaVuSans-Bold-71"/>
     </g>
    </g>
    <g id="line2d_4">
     <path d="M 19.280672 26.235506 
L 35.940672 26.235506 
" style="fill:none;stroke:#ff1493;stroke-width:3;"/>
    </g>
    <g id="text_9">
     <!-- R-peaks -->
     <defs>
      <path d="M 35.890625 40.578125 
Q 41.796875 40.578125 44.359375 42.765625 
Q 46.921875 44.96875 46.921875 50 
Q 46.921875 54.984375 44.359375 57.125 
Q 41.796875 59.28125 35.890625 59.28125 
L 27.984375 59.28125 
L 27.984375 40.578125 
z
M 27.984375 27.59375 
L 27.984375 0 
L 9.1875 0 
L 9.1875 72.90625 
L 37.890625 72.90625 
Q 52.296875 72.90625 59 68.0625 
Q 65.71875 63.234375 65.71875 52.78125 
Q 65.71875 45.5625 62.21875 40.921875 
Q 58.734375 36.28125 51.703125 34.078125 
Q 55.5625 33.203125 58.609375 30.09375 
Q 61.671875 27 64.796875 20.703125 
L 75 0 
L 54.984375 0 
L 46.09375 18.109375 
Q 43.40625 23.578125 40.640625 25.578125 
Q 37.890625 27.59375 33.296875 27.59375 
z
" id="DejaVuSans-Bold-82"/>
      <path d="M 5.421875 35.890625 
L 36.078125 35.890625 
L 36.078125 21.6875 
L 5.421875 21.6875 
z
" id="DejaVuSans-Bold-45"/>
      <path d="M 25.875 7.90625 
L 25.875 -20.796875 
L 8.40625 -20.796875 
L 8.40625 54.6875 
L 25.875 54.6875 
L 25.875 46.6875 
Q 29.5 51.46875 33.890625 53.734375 
Q 38.28125 56 44 56 
Q 54.109375 56 60.59375 47.96875 
Q 67.09375 39.9375 67.09375 27.296875 
Q 67.09375 14.65625 60.59375 6.609375 
Q 54.109375 -1.421875 44 -1.421875 
Q 38.28125 -1.421875 33.890625 0.84375 
Q 29.5 3.125 25.875 7.90625 
z
M 37.5 43.3125 
Q 31.890625 43.3125 28.875 39.1875 
Q 25.875 35.0625 25.875 27.296875 
Q 25.875 19.53125 28.875 15.40625 
Q 31.890625 11.28125 37.5 11.28125 
Q 43.109375 11.28125 46.0625 15.375 
Q 49.03125 19.484375 49.03125 27.296875 
Q 49.03125 35.109375 46.0625 39.203125 
Q 43.109375 43.3125 37.5 43.3125 
z
" id="DejaVuSans-Bold-112"/>
      <path d="M 62.984375 27.484375 
L 62.984375 22.515625 
L 22.125 22.515625 
Q 22.75 16.359375 26.5625 13.28125 
Q 30.375 10.203125 37.203125 10.203125 
Q 42.71875 10.203125 48.5 11.84375 
Q 54.296875 13.484375 60.40625 16.796875 
L 60.40625 3.328125 
Q 54.203125 0.984375 48 -0.21875 
Q 41.796875 -1.421875 35.59375 -1.421875 
Q 20.75 -1.421875 12.515625 6.125 
Q 4.296875 13.671875 4.296875 27.296875 
Q 4.296875 40.671875 12.375 48.328125 
Q 20.453125 56 34.625 56 
Q 47.515625 56 55.25 48.234375 
Q 62.984375 40.484375 62.984375 27.484375 
z
M 45.015625 33.296875 
Q 45.015625 38.28125 42.109375 41.328125 
Q 39.203125 44.390625 34.515625 44.390625 
Q 29.4375 44.390625 26.265625 41.53125 
Q 23.09375 38.671875 22.3125 33.296875 
z
" id="DejaVuSans-Bold-101"/>
      <path d="M 32.90625 24.609375 
Q 27.4375 24.609375 24.671875 22.75 
Q 21.921875 20.90625 21.921875 17.28125 
Q 21.921875 13.96875 24.140625 12.078125 
Q 26.375 10.203125 30.328125 10.203125 
Q 35.25 10.203125 38.625 13.734375 
Q 42 17.28125 42 22.609375 
L 42 24.609375 
z
M 59.625 31.203125 
L 59.625 0 
L 42 0 
L 42 8.109375 
Q 38.484375 3.125 34.078125 0.84375 
Q 29.6875 -1.421875 23.390625 -1.421875 
Q 14.890625 -1.421875 9.59375 3.53125 
Q 4.296875 8.5 4.296875 16.40625 
Q 4.296875 26.03125 10.90625 30.515625 
Q 17.53125 35.015625 31.6875 35.015625 
L 42 35.015625 
L 42 36.375 
Q 42 40.53125 38.71875 42.453125 
Q 35.453125 44.390625 28.515625 44.390625 
Q 22.90625 44.390625 18.0625 43.265625 
Q 13.234375 42.140625 9.078125 39.890625 
L 9.078125 53.21875 
Q 14.703125 54.59375 20.359375 55.296875 
Q 26.03125 56 31.6875 56 
Q 46.484375 56 53.046875 50.171875 
Q 59.625 44.34375 59.625 31.203125 
z
" id="DejaVuSans-Bold-97"/>
      <path d="M 8.40625 75.984375 
L 25.875 75.984375 
L 25.875 34.625 
L 46 54.6875 
L 66.3125 54.6875 
L 39.59375 29.59375 
L 68.40625 0 
L 47.21875 0 
L 25.875 22.796875 
L 25.875 0 
L 8.40625 0 
z
" id="DejaVuSans-Bold-107"/>
      <path d="M 51.125 52.984375 
L 51.125 39.703125 
Q 45.515625 42.046875 40.28125 43.21875 
Q 35.0625 44.390625 30.421875 44.390625 
Q 25.4375 44.390625 23.015625 43.140625 
Q 20.609375 41.890625 20.609375 39.3125 
Q 20.609375 37.203125 22.4375 36.078125 
Q 24.265625 34.96875 29 34.421875 
L 32.078125 33.984375 
Q 45.515625 32.28125 50.140625 28.375 
Q 54.78125 24.46875 54.78125 16.109375 
Q 54.78125 7.375 48.328125 2.96875 
Q 41.890625 -1.421875 29.109375 -1.421875 
Q 23.6875 -1.421875 17.890625 -0.5625 
Q 12.109375 0.296875 6 2 
L 6 15.28125 
Q 11.234375 12.75 16.71875 11.46875 
Q 22.21875 10.203125 27.875 10.203125 
Q 33.015625 10.203125 35.59375 11.609375 
Q 38.1875 13.03125 38.1875 15.828125 
Q 38.1875 18.171875 36.40625 19.3125 
Q 34.625 20.453125 29.296875 21.09375 
L 26.21875 21.484375 
Q 14.546875 22.953125 9.859375 26.90625 
Q 5.171875 30.859375 5.171875 38.921875 
Q 5.171875 47.609375 11.125 51.796875 
Q 17.09375 56 29.390625 56 
Q 34.234375 56 39.546875 55.265625 
Q 44.875 54.546875 51.125 52.984375 
z
" id="DejaVuSans-Bold-115"/>
     </defs>
     <g transform="translate(42.604672 29.151006)scale(0.0833 -0.0833)">
      <use xlink:href="#DejaVuSans-Bold-82"/>
      <use x="77.001953" xlink:href="#DejaVuSans-Bold-45"/>
      <use x="118.505859" xlink:href="#DejaVuSans-Bold-112"/>
      <use x="190.087891" xlink:href="#DejaVuSans-Bold-101"/>
      <use x="257.910156" xlink:href="#DejaVuSans-Bold-97"/>
      <use x="325.390625" xlink:href="#DejaVuSans-Bold-107"/>
      <use x="391.894531" xlink:href="#DejaVuSans-Bold-115"/>
     </g>
    </g>
   </g>
  </g>
  <g id="axes_2">
   <g id="matplotlib.axis_1">
    <g id="xtick_1">
     <g id="line2d_5">
      <defs>
       <path d="M 0 0 
L 0 3.5 
" id="m231631024f" style="stroke:#000000;stroke-width:0.8;"/>
      </defs>
      <g>
       <use style="stroke:#000000;stroke-width:0.8;" x="65.789631" xlink:href="#m231631024f" y="261.840166"/>
      </g>
     </g>
     <g id="text_10">
      <!-- 0 -->
      <g transform="translate(62.310724 276.438603)scale(0.1 -0.1)">
       <use xlink:href="#DejaVuSans-Bold-48"/>
      </g>
     </g>
    </g>
    <g id="xtick_2">
     <g id="line2d_6">
      <g>
       <use style="stroke:#000000;stroke-width:0.8;" x="130.091807" xlink:href="#m231631024f" y="261.840166"/>
      </g>
     </g>
     <g id="text_11">
      <!-- 1 -->
      <g transform="translate(126.612901 276.438603)scale(0.1 -0.1)">
       <use xlink:href="#DejaVuSans-Bold-49"/>
      </g>
     </g>
    </g>
    <g id="xtick_3">
     <g id="line2d_7">
      <g>
       <use style="stroke:#000000;stroke-width:0.8;" x="194.393984" xlink:href="#m231631024f" y="261.840166"/>
      </g>
     </g>
     <g id="text_12">
      <!-- 2 -->
      <defs>
       <path d="M 28.8125 13.8125 
L 60.890625 13.8125 
L 60.890625 0 
L 7.90625 0 
L 7.90625 13.8125 
L 34.515625 37.3125 
Q 38.09375 40.53125 39.796875 43.609375 
Q 41.5 46.6875 41.5 50 
Q 41.5 55.125 38.0625 58.25 
Q 34.625 61.375 28.90625 61.375 
Q 24.515625 61.375 19.28125 59.5 
Q 14.0625 57.625 8.109375 53.90625 
L 8.109375 69.921875 
Q 14.453125 72.015625 20.65625 73.109375 
Q 26.859375 74.21875 32.8125 74.21875 
Q 45.90625 74.21875 53.15625 68.453125 
Q 60.40625 62.703125 60.40625 52.390625 
Q 60.40625 46.4375 57.328125 41.28125 
Q 54.25 36.140625 44.390625 27.484375 
z
" id="DejaVuSans-Bold-50"/>
      </defs>
      <g transform="translate(190.915078 276.438603)scale(0.1 -0.1)">
       <use xlink:href="#DejaVuSans-Bold-50"/>
      </g>
     </g>
    </g>
    <g id="xtick_4">
     <g id="line2d_8">
      <g>
       <use style="stroke:#000000;stroke-width:0.8;" x="258.696161" xlink:href="#m231631024f" y="261.840166"/>
      </g>
     </g>
     <g id="text_13">
      <!-- 3 -->
      <defs>
       <path d="M 46.578125 39.3125 
Q 53.953125 37.40625 57.78125 32.6875 
Q 61.625 27.984375 61.625 20.703125 
Q 61.625 9.859375 53.3125 4.21875 
Q 45.015625 -1.421875 29.109375 -1.421875 
Q 23.484375 -1.421875 17.84375 -0.515625 
Q 12.203125 0.390625 6.6875 2.203125 
L 6.6875 16.703125 
Q 11.96875 14.0625 17.15625 12.71875 
Q 22.359375 11.375 27.390625 11.375 
Q 34.859375 11.375 38.84375 13.953125 
Q 42.828125 16.546875 42.828125 21.390625 
Q 42.828125 26.375 38.75 28.9375 
Q 34.671875 31.5 26.703125 31.5 
L 19.1875 31.5 
L 19.1875 43.609375 
L 27.09375 43.609375 
Q 34.1875 43.609375 37.640625 45.828125 
Q 41.109375 48.046875 41.109375 52.59375 
Q 41.109375 56.78125 37.734375 59.078125 
Q 34.375 61.375 28.21875 61.375 
Q 23.6875 61.375 19.046875 60.34375 
Q 14.40625 59.328125 9.8125 57.328125 
L 9.8125 71.09375 
Q 15.375 72.65625 20.84375 73.4375 
Q 26.3125 74.21875 31.59375 74.21875 
Q 45.796875 74.21875 52.84375 69.546875 
Q 59.90625 64.890625 59.90625 55.515625 
Q 59.90625 49.125 56.53125 45.046875 
Q 53.171875 40.96875 46.578125 39.3125 
z
" id="DejaVuSans-Bold-51"/>
      </defs>
      <g transform="translate(255.217255 276.438603)scale(0.1 -0.1)">
       <use xlink:href="#DejaVuSans-Bold-51"/>
      </g>
     </g>
    </g>
    <g id="xtick_5">
     <g id="line2d_9">
      <g>
       <use style="stroke:#000000;stroke-width:0.8;" x="322.998337" xlink:href="#m231631024f" y="261.840166"/>
      </g>
     </g>
     <g id="text_14">
      <!-- 4 -->
      <defs>
       <path d="M 36.8125 57.421875 
L 16.21875 26.90625 
L 36.8125 26.90625 
z
M 33.6875 72.90625 
L 54.59375 72.90625 
L 54.59375 26.90625 
L 64.984375 26.90625 
L 64.984375 13.28125 
L 54.59375 13.28125 
L 54.59375 0 
L 36.8125 0 
L 36.8125 13.28125 
L 4.5 13.28125 
L 4.5 29.390625 
z
" id="DejaVuSans-Bold-52"/>
      </defs>
      <g transform="translate(319.519431 276.438603)scale(0.1 -0.1)">
       <use xlink:href="#DejaVuSans-Bold-52"/>
      </g>
     </g>
    </g>
    <g id="xtick_6">
     <g id="line2d_10">
      <g>
       <use style="stroke:#000000;stroke-width:0.8;" x="387.300514" xlink:href="#m231631024f" y="261.840166"/>
      </g>
     </g>
     <g id="text_15">
      <!-- 5 -->
      <defs>
       <path d="M 10.59375 72.90625 
L 57.328125 72.90625 
L 57.328125 59.078125 
L 25.59375 59.078125 
L 25.59375 47.796875 
Q 27.734375 48.390625 29.90625 48.703125 
Q 32.078125 49.03125 34.421875 49.03125 
Q 47.75 49.03125 55.171875 42.359375 
Q 62.59375 35.6875 62.59375 23.78125 
Q 62.59375 11.96875 54.515625 5.265625 
Q 46.4375 -1.421875 32.078125 -1.421875 
Q 25.875 -1.421875 19.796875 -0.21875 
Q 13.71875 0.984375 7.71875 3.421875 
L 7.71875 18.21875 
Q 13.671875 14.796875 19.015625 13.078125 
Q 24.359375 11.375 29.109375 11.375 
Q 35.9375 11.375 39.859375 14.71875 
Q 43.796875 18.0625 43.796875 23.78125 
Q 43.796875 29.546875 39.859375 32.859375 
Q 35.9375 36.1875 29.109375 36.1875 
Q 25.046875 36.1875 20.453125 35.125 
Q 15.875 34.078125 10.59375 31.890625 
z
" id="DejaVuSans-Bold-53"/>
      </defs>
      <g transform="translate(383.821608 276.438603)scale(0.1 -0.1)">
       <use xlink:href="#DejaVuSans-Bold-53"/>
      </g>
     </g>
    </g>
    <g id="text_16">
     <!-- Time (sec) -->
     <defs>
      <path d="M 0.484375 72.90625 
L 67.671875 72.90625 
L 67.671875 58.6875 
L 43.5 58.6875 
L 43.5 0 
L 24.703125 0 
L 24.703125 58.6875 
L 0.484375 58.6875 
z
" id="DejaVuSans-Bold-84"/>
      <path d="M 8.40625 54.6875 
L 25.875 54.6875 
L 25.875 0 
L 8.40625 0 
z
M 8.40625 75.984375 
L 25.875 75.984375 
L 25.875 61.71875 
L 8.40625 61.71875 
z
" id="DejaVuSans-Bold-105"/>
      <path d="M 59.078125 45.609375 
Q 62.40625 50.6875 66.96875 53.34375 
Q 71.53125 56 77 56 
Q 86.421875 56 91.359375 50.1875 
Q 96.296875 44.390625 96.296875 33.296875 
L 96.296875 0 
L 78.71875 0 
L 78.71875 28.515625 
Q 78.765625 29.15625 78.78125 29.828125 
Q 78.8125 30.515625 78.8125 31.78125 
Q 78.8125 37.59375 77.09375 40.203125 
Q 75.390625 42.828125 71.578125 42.828125 
Q 66.609375 42.828125 63.890625 38.71875 
Q 61.1875 34.625 61.078125 26.859375 
L 61.078125 0 
L 43.5 0 
L 43.5 28.515625 
Q 43.5 37.59375 41.9375 40.203125 
Q 40.375 42.828125 36.375 42.828125 
Q 31.34375 42.828125 28.609375 38.703125 
Q 25.875 34.578125 25.875 26.90625 
L 25.875 0 
L 8.296875 0 
L 8.296875 54.6875 
L 25.875 54.6875 
L 25.875 46.6875 
Q 29.109375 51.3125 33.28125 53.65625 
Q 37.453125 56 42.484375 56 
Q 48.140625 56 52.484375 53.265625 
Q 56.84375 50.53125 59.078125 45.609375 
z
" id="DejaVuSans-Bold-109"/>
      <path id="DejaVuSans-Bold-32"/>
      <path d="M 37.703125 -13.1875 
L 23.1875 -13.1875 
Q 15.71875 -1.125 12.15625 9.734375 
Q 8.59375 20.609375 8.59375 31.296875 
Q 8.59375 42 12.171875 52.953125 
Q 15.765625 63.921875 23.1875 75.875 
L 37.703125 75.875 
Q 31.453125 64.3125 28.328125 53.25 
Q 25.203125 42.1875 25.203125 31.390625 
Q 25.203125 20.609375 28.296875 9.515625 
Q 31.390625 -1.5625 37.703125 -13.1875 
z
" id="DejaVuSans-Bold-40"/>
      <path d="M 52.59375 52.984375 
L 52.59375 38.71875 
Q 49.03125 41.15625 45.4375 42.328125 
Q 41.84375 43.5 37.984375 43.5 
Q 30.671875 43.5 26.59375 39.234375 
Q 22.515625 34.96875 22.515625 27.296875 
Q 22.515625 19.625 26.59375 15.34375 
Q 30.671875 11.078125 37.984375 11.078125 
Q 42.09375 11.078125 45.78125 12.296875 
Q 49.46875 13.53125 52.59375 15.921875 
L 52.59375 1.609375 
Q 48.484375 0.09375 44.265625 -0.65625 
Q 40.046875 -1.421875 35.796875 -1.421875 
Q 21 -1.421875 12.640625 6.171875 
Q 4.296875 13.765625 4.296875 27.296875 
Q 4.296875 40.828125 12.640625 48.40625 
Q 21 56 35.796875 56 
Q 40.09375 56 44.265625 55.25 
Q 48.4375 54.5 52.59375 52.984375 
z
" id="DejaVuSans-Bold-99"/>
      <path d="M 8.015625 -13.1875 
Q 14.265625 -1.5625 17.390625 9.515625 
Q 20.515625 20.609375 20.515625 31.390625 
Q 20.515625 42.1875 17.390625 53.25 
Q 14.265625 64.3125 8.015625 75.875 
L 22.515625 75.875 
Q 29.9375 63.921875 33.515625 52.953125 
Q 37.109375 42 37.109375 31.296875 
Q 37.109375 20.609375 33.546875 9.734375 
Q 29.984375 -1.125 22.515625 -13.1875 
z
" id="DejaVuSans-Bold-41"/>
     </defs>
     <g transform="translate(213.165313 291.636416)scale(0.12 -0.12)">
      <use xlink:href="#DejaVuSans-Bold-84"/>
      <use x="68.212891" xlink:href="#DejaVuSans-Bold-105"/>
      <use x="102.490234" xlink:href="#DejaVuSans-Bold-109"/>
      <use x="206.689453" xlink:href="#DejaVuSans-Bold-101"/>
      <use x="274.511719" xlink:href="#DejaVuSans-Bold-32"/>
      <use x="309.326172" xlink:href="#DejaVuSans-Bold-40"/>
      <use x="355.029297" xlink:href="#DejaVuSans-Bold-115"/>
      <use x="414.550781" xlink:href="#DejaVuSans-Bold-101"/>
      <use x="482.373047" xlink:href="#DejaVuSans-Bold-99"/>
      <use x="541.650391" xlink:href="#DejaVuSans-Bold-41"/>
     </g>
    </g>
   </g>
   <g id="matplotlib.axis_2">
    <g id="ytick_1">
     <g id="line2d_11">
      <path clip-path="url(#pb54ccbc381)" d="M 47.527813 260.142504 
L 449.287813 260.142504 
" style="fill:none;stroke:#b0b0b0;stroke-linecap:square;stroke-opacity:0.2;stroke-width:0.8;"/>
     </g>
     <g id="line2d_12">
      <defs>
       <path d="M 0 0 
L -3.5 0 
" id="m94c7a20a2f" style="stroke:#000000;stroke-width:0.8;"/>
      </defs>
      <g>
       <use style="stroke:#000000;stroke-width:0.8;" x="47.527813" xlink:href="#m94c7a20a2f" y="260.142504"/>
      </g>
     </g>
     <g id="text_17">
      <!-- 0.6 -->
      <g transform="translate(22.81375 263.941723)scale(0.1 -0.1)">
       <use xlink:href="#DejaVuSans-Bold-48"/>
       <use x="69.580078" xlink:href="#DejaVuSans-Bold-46"/>
       <use x="107.568359" xlink:href="#DejaVuSans-Bold-54"/>
      </g>
     </g>
    </g>
    <g id="ytick_2">
     <g id="line2d_13">
      <path clip-path="url(#pb54ccbc381)" d="M 47.527813 222.416684 
L 449.287813 222.416684 
" style="fill:none;stroke:#b0b0b0;stroke-linecap:square;stroke-opacity:0.2;stroke-width:0.8;"/>
     </g>
     <g id="line2d_14">
      <g>
       <use style="stroke:#000000;stroke-width:0.8;" x="47.527813" xlink:href="#m94c7a20a2f" y="222.416684"/>
      </g>
     </g>
     <g id="text_18">
      <!-- 0.7 -->
      <g transform="translate(22.81375 226.215903)scale(0.1 -0.1)">
       <use xlink:href="#DejaVuSans-Bold-48"/>
       <use x="69.580078" xlink:href="#DejaVuSans-Bold-46"/>
       <use x="107.568359" xlink:href="#DejaVuSans-Bold-55"/>
      </g>
     </g>
    </g>
    <g id="ytick_3">
     <g id="line2d_15">
      <path clip-path="url(#pb54ccbc381)" d="M 47.527813 184.690864 
L 449.287813 184.690864 
" style="fill:none;stroke:#b0b0b0;stroke-linecap:square;stroke-opacity:0.2;stroke-width:0.8;"/>
     </g>
     <g id="line2d_16">
      <g>
       <use style="stroke:#000000;stroke-width:0.8;" x="47.527813" xlink:href="#m94c7a20a2f" y="184.690864"/>
      </g>
     </g>
     <g id="text_19">
      <!-- 0.8 -->
      <g transform="translate(22.81375 188.490083)scale(0.1 -0.1)">
       <use xlink:href="#DejaVuSans-Bold-48"/>
       <use x="69.580078" xlink:href="#DejaVuSans-Bold-46"/>
       <use x="107.568359" xlink:href="#DejaVuSans-Bold-56"/>
      </g>
     </g>
    </g>
    <g id="ytick_4">
     <g id="line2d_17">
      <path clip-path="url(#pb54ccbc381)" d="M 47.527813 146.965044 
L 449.287813 146.965044 
" style="fill:none;stroke:#b0b0b0;stroke-linecap:square;stroke-opacity:0.2;stroke-width:0.8;"/>
     </g>
     <g id="line2d_18">
      <g>
       <use style="stroke:#000000;stroke-width:0.8;" x="47.527813" xlink:href="#m94c7a20a2f" y="146.965044"/>
      </g>
     </g>
     <g id="text_20">
      <!-- 0.9 -->
      <g transform="translate(22.81375 150.764263)scale(0.1 -0.1)">
       <use xlink:href="#DejaVuSans-Bold-48"/>
       <use x="69.580078" xlink:href="#DejaVuSans-Bold-46"/>
       <use x="107.568359" xlink:href="#DejaVuSans-Bold-57"/>
      </g>
     </g>
    </g>
    <g id="text_21">
     <!-- Heart period (sec) -->
     <defs>
      <path d="M 9.1875 72.90625 
L 27.984375 72.90625 
L 27.984375 45.125 
L 55.71875 45.125 
L 55.71875 72.90625 
L 74.515625 72.90625 
L 74.515625 0 
L 55.71875 0 
L 55.71875 30.90625 
L 27.984375 30.90625 
L 27.984375 0 
L 9.1875 0 
z
" id="DejaVuSans-Bold-72"/>
      <path d="M 49.03125 39.796875 
Q 46.734375 40.875 44.453125 41.375 
Q 42.1875 41.890625 39.890625 41.890625 
Q 33.15625 41.890625 29.515625 37.5625 
Q 25.875 33.25 25.875 25.203125 
L 25.875 0 
L 8.40625 0 
L 8.40625 54.6875 
L 25.875 54.6875 
L 25.875 45.703125 
Q 29.25 51.078125 33.609375 53.53125 
Q 37.984375 56 44.09375 56 
Q 44.96875 56 45.984375 55.921875 
Q 47.015625 55.859375 48.96875 55.609375 
z
" id="DejaVuSans-Bold-114"/>
      <path d="M 27.484375 70.21875 
L 27.484375 54.6875 
L 45.515625 54.6875 
L 45.515625 42.1875 
L 27.484375 42.1875 
L 27.484375 19 
Q 27.484375 15.1875 29 13.84375 
Q 30.515625 12.5 35.015625 12.5 
L 44 12.5 
L 44 0 
L 29 0 
Q 18.65625 0 14.328125 4.3125 
Q 10.015625 8.640625 10.015625 19 
L 10.015625 42.1875 
L 1.3125 42.1875 
L 1.3125 54.6875 
L 10.015625 54.6875 
L 10.015625 70.21875 
z
" id="DejaVuSans-Bold-116"/>
      <path d="M 34.421875 43.5 
Q 28.609375 43.5 25.5625 39.328125 
Q 22.515625 35.15625 22.515625 27.296875 
Q 22.515625 19.4375 25.5625 15.25 
Q 28.609375 11.078125 34.421875 11.078125 
Q 40.140625 11.078125 43.15625 15.25 
Q 46.1875 19.4375 46.1875 27.296875 
Q 46.1875 35.15625 43.15625 39.328125 
Q 40.140625 43.5 34.421875 43.5 
z
M 34.421875 56 
Q 48.53125 56 56.46875 48.375 
Q 64.40625 40.765625 64.40625 27.296875 
Q 64.40625 13.8125 56.46875 6.1875 
Q 48.53125 -1.421875 34.421875 -1.421875 
Q 20.265625 -1.421875 12.28125 6.1875 
Q 4.296875 13.8125 4.296875 27.296875 
Q 4.296875 40.765625 12.28125 48.375 
Q 20.265625 56 34.421875 56 
z
" id="DejaVuSans-Bold-111"/>
      <path d="M 45.609375 46.6875 
L 45.609375 75.984375 
L 63.1875 75.984375 
L 63.1875 0 
L 45.609375 0 
L 45.609375 7.90625 
Q 42 3.078125 37.640625 0.828125 
Q 33.296875 -1.421875 27.59375 -1.421875 
Q 17.484375 -1.421875 10.984375 6.609375 
Q 4.5 14.65625 4.5 27.296875 
Q 4.5 39.9375 10.984375 47.96875 
Q 17.484375 56 27.59375 56 
Q 33.25 56 37.625 53.734375 
Q 42 51.46875 45.609375 46.6875 
z
M 34.078125 11.28125 
Q 39.703125 11.28125 42.65625 15.375 
Q 45.609375 19.484375 45.609375 27.296875 
Q 45.609375 35.109375 42.65625 39.203125 
Q 39.703125 43.3125 34.078125 43.3125 
Q 28.515625 43.3125 25.5625 39.203125 
Q 22.609375 35.109375 22.609375 27.296875 
Q 22.609375 19.484375 25.5625 15.375 
Q 28.515625 11.28125 34.078125 11.28125 
z
" id="DejaVuSans-Bold-100"/>
     </defs>
     <g transform="translate(16.318125 263.290295)rotate(-90)scale(0.12 -0.12)">
      <use xlink:href="#DejaVuSans-Bold-72"/>
      <use x="83.691406" xlink:href="#DejaVuSans-Bold-101"/>
      <use x="151.513672" xlink:href="#DejaVuSans-Bold-97"/>
      <use x="218.994141" xlink:href="#DejaVuSans-Bold-114"/>
      <use x="268.310547" xlink:href="#DejaVuSans-Bold-116"/>
      <use x="316.113281" xlink:href="#DejaVuSans-Bold-32"/>
      <use x="350.927734" xlink:href="#DejaVuSans-Bold-112"/>
      <use x="422.509766" xlink:href="#DejaVuSans-Bold-101"/>
      <use x="490.332031" xlink:href="#DejaVuSans-Bold-114"/>
      <use x="539.648438" xlink:href="#DejaVuSans-Bold-105"/>
      <use x="573.925781" xlink:href="#DejaVuSans-Bold-111"/>
      <use x="642.626953" xlink:href="#DejaVuSans-Bold-100"/>
      <use x="714.208984" xlink:href="#DejaVuSans-Bold-32"/>
      <use x="749.023438" xlink:href="#DejaVuSans-Bold-40"/>
      <use x="794.726562" xlink:href="#DejaVuSans-Bold-115"/>
      <use x="854.248047" xlink:href="#DejaVuSans-Bold-101"/>
      <use x="922.070312" xlink:href="#DejaVuSans-Bold-99"/>
      <use x="981.347656" xlink:href="#DejaVuSans-Bold-41"/>
     </g>
    </g>
   </g>
   <g id="LineCollection_2">
    <path clip-path="url(#pb54ccbc381)" d="M 88.938414 256.369922 
L 88.938414 146.965044 
" style="fill:none;stroke:#ff1493;stroke-opacity:0.2;stroke-width:3;"/>
    <path clip-path="url(#pb54ccbc381)" d="M 128.162742 256.369922 
L 128.162742 146.965044 
" style="fill:none;stroke:#ff1493;stroke-opacity:0.2;stroke-width:3;"/>
    <path clip-path="url(#pb54ccbc381)" d="M 173.174266 256.369922 
L 173.174266 146.965044 
" style="fill:none;stroke:#ff1493;stroke-opacity:0.2;stroke-width:3;"/>
    <path clip-path="url(#pb54ccbc381)" d="M 216.899746 256.369922 
L 216.899746 146.965044 
" style="fill:none;stroke:#ff1493;stroke-opacity:0.2;stroke-width:3;"/>
    <path clip-path="url(#pb54ccbc381)" d="M 261.268248 256.369922 
L 261.268248 146.965044 
" style="fill:none;stroke:#ff1493;stroke-opacity:0.2;stroke-width:3;"/>
    <path clip-path="url(#pb54ccbc381)" d="M 306.922793 256.369922 
L 306.922793 146.965044 
" style="fill:none;stroke:#ff1493;stroke-opacity:0.2;stroke-width:3;"/>
    <path clip-path="url(#pb54ccbc381)" d="M 357.078491 256.369922 
L 357.078491 146.965044 
" style="fill:none;stroke:#ff1493;stroke-opacity:0.2;stroke-width:3;"/>
    <path clip-path="url(#pb54ccbc381)" d="M 414.95045 256.369922 
L 414.95045 146.965044 
" style="fill:none;stroke:#ff1493;stroke-opacity:0.2;stroke-width:3;"/>
   </g>
   <g id="line2d_19">
    <path clip-path="url(#pb54ccbc381)" d="M 65.789631 213.254699 
L 88.938414 213.254699 
L 128.162742 256.369922 
L 173.174266 222.416684 
L 216.899746 229.961848 
L 262.554291 225.976726 
L 306.922793 218.644102 
L 357.078491 192.236028 
L 414.95045 146.965044 
L 431.025994 146.965044 
L 431.025994 146.965044 
" style="fill:none;stroke:#c71585;stroke-linecap:square;stroke-width:2.5;"/>
   </g>
  </g>
  <g id="patch_3">
   <path d="M 92.053097 20.60241 
Q 108.546863 20.60241 125.04063 20.60241 
" style="fill:none;stroke:#000000;stroke-linecap:round;"/>
   <path d="M 96.053097 22.60241 
L 92.053097 20.60241 
L 96.053097 18.60241 
" style="fill:none;stroke:#000000;stroke-linecap:round;"/>
   <path d="M 121.04063 18.60241 
L 125.04063 20.60241 
L 121.04063 22.60241 
" style="fill:none;stroke:#000000;stroke-linecap:round;"/>
  </g>
  <g id="patch_4">
   <path d="M 108.716666 22.599037 
Q 118.35677 138.487486 127.904191 253.261749 
" style="fill:none;stroke:#000000;stroke-linecap:round;"/>
   <path d="M 129.565715 249.109721 
L 127.904191 253.261749 
L 125.579483 249.441313 
" style="fill:none;stroke:#000000;stroke-linecap:round;"/>
  </g>
  <g id="patch_5">
   <path d="M 131.278053 20.60241 
Q 150.668185 20.60241 170.058317 20.60241 
" style="fill:none;stroke:#000000;stroke-linecap:round;"/>
   <path d="M 135.278053 22.60241 
L 131.278053 20.60241 
L 135.278053 18.60241 
" style="fill:none;stroke:#000000;stroke-linecap:round;"/>
   <path d="M 166.058317 18.60241 
L 170.058317 20.60241 
L 166.058317 22.60241 
" style="fill:none;stroke:#000000;stroke-linecap:round;"/>
  </g>
  <g id="patch_6">
   <path d="M 150.890004 22.58865 
Q 161.921455 121.510174 172.828994 219.320552 
" style="fill:none;stroke:#000000;stroke-linecap:round;"/>
   <path d="M 174.373352 215.123534 
L 172.828994 219.320552 
L 170.397994 215.566855 
" style="fill:none;stroke:#000000;stroke-linecap:round;"/>
  </g>
  <g id="patch_7">
   <path d="M 176.291225 20.60241 
Q 195.036854 20.60241 213.782484 20.60241 
" style="fill:none;stroke:#000000;stroke-linecap:round;"/>
   <path d="M 180.291225 22.60241 
L 176.291225 20.60241 
L 180.291225 18.60241 
" style="fill:none;stroke:#000000;stroke-linecap:round;"/>
   <path d="M 209.782484 18.60241 
L 213.782484 20.60241 
L 209.782484 22.60241 
" style="fill:none;stroke:#000000;stroke-linecap:round;"/>
  </g>
  <g id="patch_8">
   <path d="M 195.244838 22.592628 
Q 205.968372 125.282096 216.575786 226.859577 
" style="fill:none;stroke:#000000;stroke-linecap:round;"/>
   <path d="M 218.149521 222.673486 
L 216.575786 226.859577 
L 214.171154 223.088934 
" style="fill:none;stroke:#000000;stroke-linecap:round;"/>
  </g>
  <g id="patch_9">
   <path d="M 220.01902 20.60241 
Q 239.08517 20.60241 258.151319 20.60241 
" style="fill:none;stroke:#000000;stroke-linecap:round;"/>
   <path d="M 224.01902 22.60241 
L 220.01902 20.60241 
L 224.01902 18.60241 
" style="fill:none;stroke:#000000;stroke-linecap:round;"/>
   <path d="M 254.151319 18.60241 
L 258.151319 20.60241 
L 254.151319 22.60241 
" style="fill:none;stroke:#000000;stroke-linecap:round;"/>
  </g>
  <g id="patch_10">
   <path d="M 239.29827 22.588135 
Q 250.175816 123.393001 260.933415 223.086286 
" style="fill:none;stroke:#000000;stroke-linecap:round;"/>
   <path d="M 262.492735 218.894804 
L 260.933415 223.086286 
L 258.515821 219.323941 
" style="fill:none;stroke:#000000;stroke-linecap:round;"/>
  </g>
  <g id="patch_11">
   <path d="M 264.384225 20.60241 
Q 284.09394 20.60241 303.803654 20.60241 
" style="fill:none;stroke:#000000;stroke-linecap:round;"/>
   <path d="M 268.384225 22.60241 
L 264.384225 20.60241 
L 268.384225 18.60241 
" style="fill:none;stroke:#000000;stroke-linecap:round;"/>
   <path d="M 299.803654 18.60241 
L 303.803654 20.60241 
L 299.803654 22.60241 
" style="fill:none;stroke:#000000;stroke-linecap:round;"/>
  </g>
  <g id="patch_12">
   <path d="M 284.324365 22.587783 
Q 295.508925 119.621241 306.565462 215.54402 
" style="fill:none;stroke:#000000;stroke-linecap:round;"/>
   <path d="M 308.09428 211.341316 
L 306.565462 215.54402 
L 304.12059 211.799344 
" style="fill:none;stroke:#000000;stroke-linecap:round;"/>
  </g>
  <g id="patch_13">
   <path d="M 310.039831 20.60241 
Q 331.999329 20.60241 353.958827 20.60241 
" style="fill:none;stroke:#000000;stroke-linecap:round;"/>
   <path d="M 314.039831 22.60241 
L 310.039831 20.60241 
L 314.039831 18.60241 
" style="fill:none;stroke:#000000;stroke-linecap:round;"/>
   <path d="M 349.958827 18.60241 
L 353.958827 20.60241 
L 349.958827 22.60241 
" style="fill:none;stroke:#000000;stroke-linecap:round;"/>
  </g>
  <g id="patch_14">
   <path d="M 332.289549 22.579695 
Q 344.53934 106.417665 356.627488 189.149347 
" style="fill:none;stroke:#000000;stroke-linecap:round;"/>
   <path d="M 358.028165 184.902218 
L 356.627488 189.149347 
L 354.070191 185.480528 
" style="fill:none;stroke:#000000;stroke-linecap:round;"/>
  </g>
  <g id="patch_15">
   <path d="M 360.199296 20.60241 
Q 386.015026 20.60241 411.830755 20.60241 
" style="fill:none;stroke:#000000;stroke-linecap:round;"/>
   <path d="M 364.199296 22.60241 
L 360.199296 20.60241 
L 364.199296 18.60241 
" style="fill:none;stroke:#000000;stroke-linecap:round;"/>
   <path d="M 407.830755 18.60241 
L 411.830755 20.60241 
L 407.830755 22.60241 
" style="fill:none;stroke:#000000;stroke-linecap:round;"/>
  </g>
  <g id="patch_16">
   <path d="M 386.460414 22.549832 
Q 400.482419 83.783546 414.254863 143.927434 
" style="fill:none;stroke:#000000;stroke-linecap:round;"/>
   <path d="M 415.311546 139.581928 
L 414.254863 143.927434 
L 411.412468 140.474784 
" style="fill:none;stroke:#000000;stroke-linecap:round;"/>
  </g>
 </g>
 <defs>
  <clipPath id="pd955fdc27a">
   <rect height="120.345366" width="401.76" x="47.527813" y="15.132166"/>
  </clipPath>
  <clipPath id="pb54ccbc381">
   <rect height="120.345366" width="401.76" x="47.527813" y="141.4948"/>
  </clipPath>
 </defs>
</svg>
