<?xml version="1.0" encoding="utf-8" standalone="no"?>
<!DOCTYPE svg PUBLIC "-//W3C//DTD SVG 1.1//EN"
  "http://www.w3.org/Graphics/SVG/1.1/DTD/svg11.dtd">
<!-- Created with matplotlib (https://matplotlib.org/) -->
<svg height="302.518pt" version="1.1" viewBox="0 0 464.720937 302.518" width="464.720937pt" xmlns="http://www.w3.org/2000/svg" xmlns:xlink="http://www.w3.org/1999/xlink">
 <metadata>
  <rdf:RDF xmlns:cc="http://creativecommons.org/ns#" xmlns:dc="http://purl.org/dc/elements/1.1/" xmlns:rdf="http://www.w3.org/1999/02/22-rdf-syntax-ns#">
   <cc:Work>
    <dc:type rdf:resource="http://purl.org/dc/dcmitype/StillImage"/>
    <dc:date>2020-08-22T13:22:42.992511</dc:date>
    <dc:format>image/svg+xml</dc:format>
    <dc:creator>
     <cc:Agent>
      <dc:title>Matplotlib v3.3.0, https://matplotlib.org/</dc:title>
     </cc:Agent>
    </dc:creator>
   </cc:Work>
  </rdf:RDF>
 </metadata>
 <defs>
  <style type="text/css">*{stroke-linecap:butt;stroke-linejoin:round;}</style>
 </defs>
 <g id="figure_1">
  <g id="patch_1">
   <path d="M 0 302.518 
L 464.720937 302.518 
L 464.720937 0 
L 0 0 
z
" style="fill:#ffffff;"/>
  </g>
  <g id="axes_1">
   <g id="LineCollection_1">
    <path clip-path="url(#pe3e025b04a)" d="M 88.938414 131.193247 
L 88.938414 21.788369 
" style="fill:none;stroke:#ff1493;stroke-width:3;"/>
    <path clip-path="url(#pe3e025b04a)" d="M 128.162742 131.193247 
L 128.162742 21.788369 
" style="fill:none;stroke:#ff1493;stroke-width:3;"/>
    <path clip-path="url(#pe3e025b04a)" d="M 173.174266 131.193247 
L 173.174266 21.788369 
" style="fill:none;stroke:#ff1493;stroke-width:3;"/>
    <path clip-path="url(#pe3e025b04a)" d="M 216.899746 131.193247 
L 216.899746 21.788369 
" style="fill:none;stroke:#ff1493;stroke-width:3;"/>
    <path clip-path="url(#pe3e025b04a)" d="M 261.268248 131.193247 
L 261.268248 21.788369 
" style="fill:none;stroke:#ff1493;stroke-width:3;"/>
    <path clip-path="url(#pe3e025b04a)" d="M 306.922793 131.193247 
L 306.922793 21.788369 
" style="fill:none;stroke:#ff1493;stroke-width:3;"/>
    <path clip-path="url(#pe3e025b04a)" d="M 357.078491 131.193247 
L 357.078491 21.788369 
" style="fill:none;stroke:#ff1493;stroke-width:3;"/>
    <path clip-path="url(#pe3e025b04a)" d="M 414.95045 131.193247 
L 414.95045 21.788369 
" style="fill:none;stroke:#ff1493;stroke-width:3;"/>
   </g>
   <g id="line2d_1">
    <path clip-path="url(#pe3e025b04a)" d="M 65.789631 101.15769 
L 66.432652 101.447889 
L 67.075674 100.722392 
L 67.718696 99.561598 
L 68.361718 99.416499 
L 69.647761 95.353718 
L 70.290783 94.338023 
L 70.933805 93.902725 
L 71.576827 93.177228 
L 72.219848 93.322328 
L 73.505892 91.290937 
L 74.148914 91.726235 
L 75.434957 91.726235 
L 76.077979 92.161533 
L 76.721001 92.016434 
L 77.364022 92.016434 
L 78.007044 92.74193 
L 78.650066 94.483122 
L 79.293088 93.902725 
L 79.93611 93.902725 
L 81.222153 94.192923 
L 81.865175 93.322328 
L 82.508197 93.612526 
L 83.151218 94.192923 
L 83.79424 92.74193 
L 84.437262 92.451732 
L 85.080284 93.177228 
L 85.723305 92.451732 
L 86.366327 94.628221 
L 87.009349 95.789016 
L 87.652371 100.577293 
L 88.295393 49.212138 
L 88.938414 25.70605 
L 89.581436 51.388628 
L 90.224458 89.404646 
L 90.86748 110.879344 
L 91.510501 116.828415 
L 92.153523 117.118614 
L 92.796545 113.055833 
L 94.082588 111.459741 
L 94.72561 109.718549 
L 96.011654 107.832258 
L 97.297697 103.769478 
L 97.940719 104.059676 
L 98.583741 103.189081 
L 99.226763 103.189081 
L 99.869784 103.624378 
L 101.155828 102.318485 
L 101.79885 102.753783 
L 103.727915 98.545903 
L 104.370937 97.820406 
L 105.013958 95.643917 
L 106.300002 92.74193 
L 106.943024 94.338023 
L 107.586046 91.581136 
L 108.229067 91.290937 
L 108.872089 91.145838 
L 109.515111 92.88703 
L 110.158133 91.290937 
L 110.801154 90.71054 
L 111.444176 91.290937 
L 112.087198 91.290937 
L 112.73022 91.871335 
L 113.373241 91.436037 
L 114.016263 91.871335 
L 114.659285 93.032129 
L 115.302307 92.161533 
L 115.945329 91.581136 
L 116.58835 93.322328 
L 117.231372 93.757626 
L 117.874394 93.612526 
L 118.517416 95.208619 
L 119.160437 95.353718 
L 119.803459 96.224314 
L 120.446481 95.208619 
L 121.089503 95.208619 
L 121.732524 94.047824 
L 122.375546 93.757626 
L 123.018568 94.483122 
L 123.66159 93.757626 
L 124.304611 94.483122 
L 124.947633 94.91842 
L 125.590655 93.322328 
L 126.233677 96.224314 
L 126.876699 104.494974 
L 128.162742 23.384461 
L 128.805764 42.972868 
L 129.448786 80.553589 
L 130.091807 110.444046 
L 130.734829 115.522522 
L 131.377851 116.538217 
L 132.020873 115.377422 
L 132.663894 113.636231 
L 133.306916 111.459741 
L 133.949938 111.024443 
L 135.235982 107.251861 
L 135.879003 106.961663 
L 137.165047 103.479279 
L 137.808069 104.204776 
L 138.45109 103.479279 
L 139.094112 104.349875 
L 139.737134 104.349875 
L 140.380156 102.898882 
L 141.023177 102.318485 
L 141.666199 102.318485 
L 142.309221 101.012591 
L 142.952243 100.577293 
L 143.595264 98.400803 
L 144.238286 96.804711 
L 144.881308 94.483122 
L 145.52433 95.208619 
L 146.167352 92.016434 
L 146.810373 91.871335 
L 147.453395 92.306632 
L 148.096417 93.322328 
L 148.739439 92.596831 
L 149.38246 91.000739 
L 150.025482 92.016434 
L 150.668504 92.161533 
L 151.311526 92.016434 
L 151.954547 91.145838 
L 152.597569 91.871335 
L 153.240591 92.016434 
L 153.883613 91.436037 
L 154.526635 92.74193 
L 155.169656 91.871335 
L 155.812678 91.871335 
L 156.4557 93.612526 
L 157.098722 91.726235 
L 157.741743 93.467427 
L 158.384765 94.483122 
L 159.027787 93.032129 
L 159.670809 93.322328 
L 160.31383 93.757626 
L 161.599874 94.91842 
L 162.885917 94.91842 
L 163.528939 96.079214 
L 164.171961 96.079214 
L 164.814983 96.369413 
L 165.458005 95.789016 
L 166.101026 94.91842 
L 166.744048 96.514512 
L 167.38707 94.047824 
L 168.030092 93.612526 
L 169.316135 94.91842 
L 169.959157 93.757626 
L 170.602179 94.91842 
L 171.2452 95.643917 
L 171.888222 99.996896 
L 172.531244 91.436037 
L 173.174266 37.604193 
L 173.817288 37.894392 
L 174.460309 64.012267 
L 175.103331 99.561598 
L 175.746353 112.910734 
L 176.389375 115.232323 
L 177.032396 116.393118 
L 177.675418 113.926429 
L 178.31844 110.298947 
L 178.961462 110.153847 
L 179.604483 109.863649 
L 180.247505 107.54206 
L 180.890527 106.236166 
L 181.533549 107.977358 
L 182.176571 105.655769 
L 182.819592 102.753783 
L 183.462614 101.738087 
L 184.105636 103.769478 
L 184.748658 102.028286 
L 185.391679 101.012591 
L 186.034701 101.738087 
L 186.677723 100.722392 
L 187.320745 100.287094 
L 187.963766 99.996896 
L 188.606788 98.400803 
L 189.24981 96.369413 
L 189.892832 96.079214 
L 190.535853 95.063519 
L 191.178875 94.628221 
L 191.821897 95.643917 
L 192.464919 95.643917 
L 193.107941 95.353718 
L 193.750962 94.483122 
L 194.393984 94.047824 
L 195.037006 95.934115 
L 195.680028 95.208619 
L 196.323049 95.063519 
L 196.966071 95.208619 
L 197.609093 93.032129 
L 198.252115 92.451732 
L 198.895136 93.177228 
L 199.538158 93.612526 
L 200.18118 94.483122 
L 200.824202 94.483122 
L 201.467224 95.353718 
L 202.110245 95.208619 
L 203.396289 94.628221 
L 204.039311 95.789016 
L 204.682332 94.628221 
L 205.968376 94.628221 
L 207.254419 97.09491 
L 207.897441 97.240009 
L 208.540463 97.09491 
L 209.183485 96.369413 
L 209.826506 94.91842 
L 210.469528 95.208619 
L 211.11255 95.063519 
L 211.755572 95.498817 
L 212.398594 95.353718 
L 213.041615 94.192923 
L 213.684637 95.934115 
L 214.327659 96.94981 
L 214.970681 96.079214 
L 215.613702 101.15769 
L 216.256724 80.843787 
L 216.899746 25.270752 
L 217.542768 34.557108 
L 218.185789 72.137829 
L 218.828811 100.432194 
L 220.114855 127.130466 
L 220.757877 106.816563 
L 221.400898 107.832258 
L 222.04392 110.444046 
L 222.686942 105.655769 
L 223.329964 131.193247 
L 224.616007 89.114448 
L 225.259029 96.514512 
L 225.902051 101.012591 
L 226.545072 101.592988 
L 227.188094 103.043981 
L 227.831116 104.059676 
L 228.474138 101.883187 
L 229.117159 106.961663 
L 229.760181 103.33418 
L 230.403203 102.608683 
L 231.046225 102.608683 
L 231.689247 93.902725 
L 232.332268 96.804711 
L 232.97529 97.09491 
L 233.618312 95.789016 
L 234.261334 96.514512 
L 234.904355 100.432194 
L 235.547377 89.549746 
L 236.190399 90.130143 
L 236.833421 89.114448 
L 237.476442 88.388951 
L 238.119464 91.581136 
L 238.762486 91.436037 
L 239.405508 92.596831 
L 240.04853 93.322328 
L 240.691551 92.306632 
L 241.334573 92.451732 
L 241.977595 92.016434 
L 242.620617 94.91842 
L 243.263638 95.643917 
L 243.90666 89.114448 
L 244.549682 89.985044 
L 245.192704 92.451732 
L 245.835725 93.177228 
L 246.478747 93.032129 
L 247.121769 93.757626 
L 247.764791 99.561598 
L 248.407813 93.177228 
L 249.050834 94.773321 
L 249.693856 103.33418 
L 250.336878 90.565441 
L 250.9799 90.565441 
L 251.622921 92.016434 
L 252.265943 95.934115 
L 252.908965 96.514512 
L 253.551987 98.400803 
L 254.195008 106.671464 
L 254.83803 87.808554 
L 255.481052 89.549746 
L 256.124074 93.902725 
L 256.767095 93.032129 
L 257.410117 94.91842 
L 258.053139 97.240009 
L 258.696161 96.224314 
L 259.339183 99.271399 
L 259.982204 96.369413 
L 260.625226 36.878697 
L 261.268248 21.788369 
L 261.91127 52.259224 
L 262.554291 93.322328 
L 263.197313 116.683316 
L 263.840335 120.1657 
L 264.483357 119.585302 
L 265.126378 117.98921 
L 266.412422 113.636231 
L 267.055444 112.185238 
L 267.698466 110.444046 
L 268.984509 107.977358 
L 270.270553 105.220471 
L 270.913574 105.36557 
L 271.556596 104.930272 
L 272.199618 104.930272 
L 272.84264 104.204776 
L 273.485661 104.059676 
L 274.128683 104.204776 
L 274.771705 102.753783 
L 276.70077 99.561598 
L 277.343792 98.400803 
L 277.986814 97.530208 
L 278.629836 100.141995 
L 279.272857 88.53405 
L 279.915879 88.388951 
L 281.201923 91.581136 
L 281.844944 92.161533 
L 283.130988 92.161533 
L 283.77401 92.596831 
L 284.417031 92.596831 
L 285.060053 92.88703 
L 285.703075 92.306632 
L 286.346097 92.161533 
L 287.63214 94.047824 
L 288.275162 92.596831 
L 288.918184 93.032129 
L 290.204227 94.047824 
L 290.847249 94.047824 
L 291.490271 94.773321 
L 292.776314 94.773321 
L 293.419336 95.353718 
L 294.062358 95.643917 
L 294.70538 94.773321 
L 295.991423 96.079214 
L 296.634445 97.09491 
L 297.920489 98.110605 
L 298.56351 96.514512 
L 299.206532 96.369413 
L 299.849554 95.934115 
L 300.492576 95.934115 
L 301.135597 95.353718 
L 301.778619 95.208619 
L 302.421641 95.208619 
L 303.064663 95.353718 
L 303.707684 95.643917 
L 304.350706 95.789016 
L 304.993728 96.659612 
L 305.63675 102.753783 
L 306.279772 53.565117 
L 306.922793 21.788369 
L 307.565815 44.859159 
L 308.208837 82.584979 
L 308.851859 112.185238 
L 309.49488 119.585302 
L 310.137902 119.004905 
L 310.780924 117.263713 
L 311.423946 116.102919 
L 313.996033 108.702854 
L 314.639054 107.251861 
L 315.282076 106.236166 
L 315.925098 105.800868 
L 316.56812 104.785173 
L 317.211142 104.059676 
L 319.140207 103.624378 
L 319.783229 103.769478 
L 321.069272 102.463584 
L 321.712294 101.15769 
L 322.355316 99.561598 
L 322.998337 97.240009 
L 324.284381 93.322328 
L 324.927403 92.161533 
L 325.570425 90.71054 
L 326.213446 89.839944 
L 326.856468 89.549746 
L 327.49949 90.420341 
L 328.142512 90.275242 
L 328.785533 91.000739 
L 329.428555 91.000739 
L 330.071577 91.436037 
L 330.714599 90.855639 
L 331.35762 90.71054 
L 332.000642 91.000739 
L 332.643664 90.71054 
L 333.929708 90.71054 
L 334.572729 91.436037 
L 335.215751 92.451732 
L 335.858773 92.306632 
L 337.144816 93.322328 
L 337.787838 93.322328 
L 338.43086 93.032129 
L 339.073882 93.757626 
L 340.359925 93.757626 
L 341.002947 94.047824 
L 341.645969 94.192923 
L 342.28899 94.192923 
L 342.932012 96.079214 
L 343.575034 95.643917 
L 344.218056 93.032129 
L 344.861078 93.757626 
L 345.504099 95.643917 
L 346.147121 94.91842 
L 346.790143 95.934115 
L 347.433165 97.240009 
L 348.076186 96.804711 
L 348.719208 97.385108 
L 349.36223 96.514512 
L 350.005252 95.353718 
L 350.648273 94.483122 
L 351.291295 94.483122 
L 351.934317 95.063519 
L 352.577339 94.338023 
L 353.863382 95.208619 
L 354.506404 95.208619 
L 355.149426 95.934115 
L 355.792448 101.447889 
L 356.435469 50.80823 
L 357.078491 21.788369 
L 357.721513 39.200286 
L 358.364535 81.279085 
L 359.007556 113.926429 
L 359.650578 120.310799 
L 360.2936 120.0206 
L 360.936622 118.569607 
L 362.865687 113.200933 
L 364.151731 109.863649 
L 364.794752 109.428351 
L 365.437774 106.526365 
L 366.080796 105.075372 
L 366.723818 105.36557 
L 367.366839 104.930272 
L 368.009861 104.640074 
L 369.295905 103.769478 
L 370.581948 104.349875 
L 371.867992 103.043981 
L 372.511014 100.722392 
L 373.154035 97.820406 
L 373.797057 96.804711 
L 374.440079 94.773321 
L 375.083101 92.306632 
L 375.726122 90.855639 
L 376.369144 90.71054 
L 377.012166 90.275242 
L 377.655188 90.275242 
L 378.941231 91.145838 
L 379.584253 91.290937 
L 380.227275 91.145838 
L 380.870296 91.145838 
L 381.513318 91.290937 
L 382.15634 90.71054 
L 382.799362 91.436037 
L 383.442384 91.581136 
L 384.085405 91.145838 
L 384.728427 92.016434 
L 385.371449 91.726235 
L 386.657492 93.032129 
L 387.300514 92.451732 
L 388.586558 94.047824 
L 389.229579 93.612526 
L 389.872601 94.047824 
L 391.158645 93.757626 
L 392.444688 94.91842 
L 393.08771 94.483122 
L 393.730732 95.643917 
L 394.373754 94.91842 
L 395.016775 94.483122 
L 395.659797 95.353718 
L 396.302819 94.773321 
L 396.945841 95.789016 
L 397.588862 96.224314 
L 398.231884 95.934115 
L 398.874906 95.789016 
L 399.517928 95.934115 
L 400.16095 95.789016 
L 400.803971 96.224314 
L 401.446993 96.079214 
L 402.090015 96.804711 
L 402.733037 95.934115 
L 403.376058 95.789016 
L 404.01908 95.789016 
L 404.662102 96.079214 
L 405.305124 96.94981 
L 405.948145 96.804711 
L 406.591167 96.369413 
L 407.234189 95.353718 
L 407.877211 95.353718 
L 408.520232 95.208619 
L 409.163254 94.338023 
L 409.806276 95.063519 
L 410.449298 95.063519 
L 411.09232 94.91842 
L 411.735341 95.208619 
L 412.378363 94.773321 
L 413.021385 96.804711 
L 413.664407 102.753783 
L 414.307428 54.000415 
L 414.95045 24.835454 
L 415.593472 50.663131 
L 416.236494 85.486965 
L 416.879515 111.169542 
L 417.522537 117.118614 
L 418.165559 116.538217 
L 418.808581 115.377422 
L 419.451603 113.78133 
L 420.737646 110.008748 
L 421.380668 108.557755 
L 422.02369 107.977358 
L 422.666711 106.816563 
L 423.309733 106.091067 
L 423.952755 104.785173 
L 424.595777 104.640074 
L 425.238798 103.479279 
L 425.88182 103.624378 
L 426.524842 102.898882 
L 427.167864 102.898882 
L 427.810885 102.753783 
L 428.453907 102.898882 
L 429.096929 101.592988 
L 429.739951 101.592988 
L 430.382973 100.867492 
L 431.025994 98.110605 
L 431.025994 98.110605 
" style="fill:none;stroke:#1f77b4;stroke-linecap:square;stroke-width:2.5;"/>
   </g>
   <g id="text_1">
    <!-- A -->
    <g transform="translate(449.287813 16.318125)scale(0.12 -0.12)">
     <defs>
      <path d="M 34.1875 63.1875 
L 20.796875 26.90625 
L 47.609375 26.90625 
z
M 28.609375 72.90625 
L 39.796875 72.90625 
L 67.578125 0 
L 57.328125 0 
L 50.6875 18.703125 
L 17.828125 18.703125 
L 11.1875 0 
L 0.78125 0 
z
" id="DejaVuSans-65"/>
     </defs>
     <use xlink:href="#DejaVuSans-65"/>
    </g>
   </g>
   <g id="text_2">
    <!-- 0.61 -->
    <g transform="translate(96.214641 15.984397)scale(0.1 -0.1)">
     <defs>
      <path d="M 46 36.53125 
Q 46 50.203125 43.4375 55.78125 
Q 40.875 61.375 34.8125 61.375 
Q 28.765625 61.375 26.171875 55.78125 
Q 23.578125 50.203125 23.578125 36.53125 
Q 23.578125 22.703125 26.171875 17.03125 
Q 28.765625 11.375 34.8125 11.375 
Q 40.828125 11.375 43.40625 17.03125 
Q 46 22.703125 46 36.53125 
z
M 64.796875 36.375 
Q 64.796875 18.265625 56.984375 8.421875 
Q 49.171875 -1.421875 34.8125 -1.421875 
Q 20.40625 -1.421875 12.59375 8.421875 
Q 4.78125 18.265625 4.78125 36.375 
Q 4.78125 54.546875 12.59375 64.375 
Q 20.40625 74.21875 34.8125 74.21875 
Q 49.171875 74.21875 56.984375 64.375 
Q 64.796875 54.546875 64.796875 36.375 
z
" id="DejaVuSans-Bold-48"/>
      <path d="M 10.203125 18.890625 
L 27.78125 18.890625 
L 27.78125 0 
L 10.203125 0 
z
" id="DejaVuSans-Bold-46"/>
      <path d="M 36.1875 35.984375 
Q 31.25 35.984375 28.78125 32.78125 
Q 26.3125 29.59375 26.3125 23.1875 
Q 26.3125 16.796875 28.78125 13.59375 
Q 31.25 10.40625 36.1875 10.40625 
Q 41.15625 10.40625 43.625 13.59375 
Q 46.09375 16.796875 46.09375 23.1875 
Q 46.09375 29.59375 43.625 32.78125 
Q 41.15625 35.984375 36.1875 35.984375 
z
M 59.421875 71 
L 59.421875 57.515625 
Q 54.78125 59.71875 50.671875 60.765625 
Q 46.578125 61.8125 42.671875 61.8125 
Q 34.28125 61.8125 29.59375 57.140625 
Q 24.90625 52.484375 24.125 43.3125 
Q 27.34375 45.703125 31.09375 46.890625 
Q 34.859375 48.09375 39.3125 48.09375 
Q 50.484375 48.09375 57.34375 41.546875 
Q 64.203125 35.015625 64.203125 24.421875 
Q 64.203125 12.703125 56.53125 5.640625 
Q 48.875 -1.421875 35.984375 -1.421875 
Q 21.78125 -1.421875 13.984375 8.171875 
Q 6.203125 17.78125 6.203125 35.40625 
Q 6.203125 53.46875 15.3125 63.796875 
Q 24.421875 74.125 40.28125 74.125 
Q 45.3125 74.125 50.046875 73.34375 
Q 54.78125 72.5625 59.421875 71 
z
" id="DejaVuSans-Bold-54"/>
      <path d="M 11.71875 12.984375 
L 28.328125 12.984375 
L 28.328125 60.109375 
L 11.28125 56.59375 
L 11.28125 69.390625 
L 28.21875 72.90625 
L 46.09375 72.90625 
L 46.09375 12.984375 
L 62.703125 12.984375 
L 62.703125 0 
L 11.71875 0 
z
" id="DejaVuSans-Bold-49"/>
     </defs>
     <use xlink:href="#DejaVuSans-Bold-48"/>
     <use x="69.580078" xlink:href="#DejaVuSans-Bold-46"/>
     <use x="107.568359" xlink:href="#DejaVuSans-Bold-54"/>
     <use x="177.148438" xlink:href="#DejaVuSans-Bold-49"/>
    </g>
   </g>
   <g id="text_3">
    <!-- 0.70 -->
    <g transform="translate(138.332566 15.984397)scale(0.1 -0.1)">
     <defs>
      <path d="M 6.6875 72.90625 
L 61.625 72.90625 
L 61.625 62.3125 
L 33.203125 0 
L 14.890625 0 
L 41.796875 59.078125 
L 6.6875 59.078125 
z
" id="DejaVuSans-Bold-55"/>
     </defs>
     <use xlink:href="#DejaVuSans-Bold-48"/>
     <use x="69.580078" xlink:href="#DejaVuSans-Bold-46"/>
     <use x="107.568359" xlink:href="#DejaVuSans-Bold-55"/>
     <use x="177.148438" xlink:href="#DejaVuSans-Bold-48"/>
    </g>
   </g>
   <g id="text_4">
    <!-- 0.68 -->
    <g transform="translate(182.701068 15.984397)scale(0.1 -0.1)">
     <defs>
      <path d="M 34.8125 32.625 
Q 29.546875 32.625 26.703125 29.734375 
Q 23.875 26.859375 23.875 21.484375 
Q 23.875 16.109375 26.703125 13.25 
Q 29.546875 10.40625 34.8125 10.40625 
Q 40.046875 10.40625 42.828125 13.25 
Q 45.609375 16.109375 45.609375 21.484375 
Q 45.609375 26.90625 42.828125 29.765625 
Q 40.046875 32.625 34.8125 32.625 
z
M 21.09375 38.8125 
Q 14.453125 40.828125 11.078125 44.96875 
Q 7.71875 49.125 7.71875 55.328125 
Q 7.71875 64.546875 14.59375 69.375 
Q 21.484375 74.21875 34.8125 74.21875 
Q 48.046875 74.21875 54.921875 69.40625 
Q 61.8125 64.59375 61.8125 55.328125 
Q 61.8125 49.125 58.421875 44.96875 
Q 55.03125 40.828125 48.390625 38.8125 
Q 55.8125 36.765625 59.59375 32.15625 
Q 63.375 27.546875 63.375 20.515625 
Q 63.375 9.671875 56.171875 4.125 
Q 48.96875 -1.421875 34.8125 -1.421875 
Q 20.609375 -1.421875 13.359375 4.125 
Q 6.109375 9.671875 6.109375 20.515625 
Q 6.109375 27.546875 9.890625 32.15625 
Q 13.671875 36.765625 21.09375 38.8125 
z
M 25.484375 53.421875 
Q 25.484375 49.078125 27.90625 46.734375 
Q 30.328125 44.390625 34.8125 44.390625 
Q 39.203125 44.390625 41.59375 46.734375 
Q 44 49.078125 44 53.421875 
Q 44 57.765625 41.59375 60.078125 
Q 39.203125 62.40625 34.8125 62.40625 
Q 30.328125 62.40625 27.90625 60.0625 
Q 25.484375 57.71875 25.484375 53.421875 
z
" id="DejaVuSans-Bold-56"/>
     </defs>
     <use xlink:href="#DejaVuSans-Bold-48"/>
     <use x="69.580078" xlink:href="#DejaVuSans-Bold-46"/>
     <use x="107.568359" xlink:href="#DejaVuSans-Bold-54"/>
     <use x="177.148438" xlink:href="#DejaVuSans-Bold-56"/>
    </g>
   </g>
   <g id="text_5">
    <!-- 0.69 -->
    <g transform="translate(226.748059 15.984397)scale(0.1 -0.1)">
     <defs>
      <path d="M 10.015625 1.609375 
L 10.015625 15.09375 
Q 14.5 12.984375 18.59375 11.9375 
Q 22.703125 10.890625 26.703125 10.890625 
Q 35.109375 10.890625 39.796875 15.546875 
Q 44.484375 20.21875 45.3125 29.390625 
Q 42 26.953125 38.234375 25.734375 
Q 34.46875 24.515625 30.078125 24.515625 
Q 18.890625 24.515625 12.03125 31.03125 
Q 5.171875 37.546875 5.171875 48.1875 
Q 5.171875 59.96875 12.8125 67.046875 
Q 20.453125 74.125 33.296875 74.125 
Q 47.5625 74.125 55.375 64.5 
Q 63.1875 54.890625 63.1875 37.3125 
Q 63.1875 19.234375 54.046875 8.90625 
Q 44.921875 -1.421875 29 -1.421875 
Q 23.875 -1.421875 19.1875 -0.65625 
Q 14.5 0.09375 10.015625 1.609375 
z
M 33.203125 36.71875 
Q 38.140625 36.71875 40.625 39.90625 
Q 43.109375 43.109375 43.109375 49.515625 
Q 43.109375 55.859375 40.625 59.078125 
Q 38.140625 62.3125 33.203125 62.3125 
Q 28.265625 62.3125 25.78125 59.078125 
Q 23.296875 55.859375 23.296875 49.515625 
Q 23.296875 43.109375 25.78125 39.90625 
Q 28.265625 36.71875 33.203125 36.71875 
z
" id="DejaVuSans-Bold-57"/>
     </defs>
     <use xlink:href="#DejaVuSans-Bold-48"/>
     <use x="69.580078" xlink:href="#DejaVuSans-Bold-46"/>
     <use x="107.568359" xlink:href="#DejaVuSans-Bold-54"/>
     <use x="177.148438" xlink:href="#DejaVuSans-Bold-57"/>
    </g>
   </g>
   <g id="text_6">
    <!-- 0.71 -->
    <g transform="translate(271.759583 15.984397)scale(0.1 -0.1)">
     <use xlink:href="#DejaVuSans-Bold-48"/>
     <use x="69.580078" xlink:href="#DejaVuSans-Bold-46"/>
     <use x="107.568359" xlink:href="#DejaVuSans-Bold-55"/>
     <use x="177.148438" xlink:href="#DejaVuSans-Bold-49"/>
    </g>
   </g>
   <g id="text_7">
    <!-- 0.78 -->
    <g transform="translate(319.664705 15.984397)scale(0.1 -0.1)">
     <use xlink:href="#DejaVuSans-Bold-48"/>
     <use x="69.580078" xlink:href="#DejaVuSans-Bold-46"/>
     <use x="107.568359" xlink:href="#DejaVuSans-Bold-55"/>
     <use x="177.148438" xlink:href="#DejaVuSans-Bold-56"/>
    </g>
   </g>
   <g id="text_8">
    <!-- 0.90 -->
    <g transform="translate(373.678533 15.984397)scale(0.1 -0.1)">
     <use xlink:href="#DejaVuSans-Bold-48"/>
     <use x="69.580078" xlink:href="#DejaVuSans-Bold-46"/>
     <use x="107.568359" xlink:href="#DejaVuSans-Bold-57"/>
     <use x="177.148438" xlink:href="#DejaVuSans-Bold-48"/>
    </g>
   </g>
   <g id="legend_1">
    <g id="patch_2">
     <path d="M 17.614672 35.401345 
L 81.872813 35.401345 
Q 83.538813 35.401345 83.538813 33.735345 
L 83.538813 10.114588 
Q 83.538813 8.448588 81.872813 8.448588 
L 17.614672 8.448588 
Q 15.948672 8.448588 15.948672 10.114588 
L 15.948672 33.735345 
Q 15.948672 35.401345 17.614672 35.401345 
z
" style="fill:#ffffff;opacity:0.8;stroke:#cccccc;stroke-linejoin:miter;"/>
    </g>
    <g id="line2d_2">
     <path d="M 19.280672 15.194587 
L 35.940672 15.194587 
" style="fill:none;stroke:#1f77b4;stroke-linecap:square;stroke-width:2.5;"/>
    </g>
    <g id="line2d_3"/>
    <g id="text_9">
     <!-- ECG -->
     <g transform="translate(42.604672 18.110087)scale(0.0833 -0.0833)">
      <defs>
       <path d="M 9.1875 72.90625 
L 59.90625 72.90625 
L 59.90625 58.6875 
L 27.984375 58.6875 
L 27.984375 45.125 
L 58.015625 45.125 
L 58.015625 30.90625 
L 27.984375 30.90625 
L 27.984375 14.203125 
L 60.984375 14.203125 
L 60.984375 0 
L 9.1875 0 
z
" id="DejaVuSans-Bold-69"/>
       <path d="M 67 4 
Q 61.8125 1.3125 56.203125 -0.046875 
Q 50.59375 -1.421875 44.484375 -1.421875 
Q 26.265625 -1.421875 15.625 8.765625 
Q 4.984375 18.953125 4.984375 36.375 
Q 4.984375 53.859375 15.625 64.03125 
Q 26.265625 74.21875 44.484375 74.21875 
Q 50.59375 74.21875 56.203125 72.84375 
Q 61.8125 71.484375 67 68.796875 
L 67 53.71875 
Q 61.765625 57.28125 56.6875 58.9375 
Q 51.609375 60.59375 46 60.59375 
Q 35.9375 60.59375 30.171875 54.140625 
Q 24.421875 47.703125 24.421875 36.375 
Q 24.421875 25.09375 30.171875 18.640625 
Q 35.9375 12.203125 46 12.203125 
Q 51.609375 12.203125 56.6875 13.859375 
Q 61.765625 15.53125 67 19.09375 
z
" id="DejaVuSans-Bold-67"/>
       <path d="M 74.703125 5.421875 
Q 67.671875 2 60.109375 0.28125 
Q 52.546875 -1.421875 44.484375 -1.421875 
Q 26.265625 -1.421875 15.625 8.765625 
Q 4.984375 18.953125 4.984375 36.375 
Q 4.984375 54 15.8125 64.109375 
Q 26.65625 74.21875 45.515625 74.21875 
Q 52.78125 74.21875 59.4375 72.84375 
Q 66.109375 71.484375 72.015625 68.796875 
L 72.015625 53.71875 
Q 65.921875 57.171875 59.890625 58.875 
Q 53.859375 60.59375 47.796875 60.59375 
Q 36.578125 60.59375 30.5 54.3125 
Q 24.421875 48.046875 24.421875 36.375 
Q 24.421875 24.8125 30.28125 18.5 
Q 36.140625 12.203125 46.921875 12.203125 
Q 49.859375 12.203125 52.375 12.5625 
Q 54.890625 12.9375 56.890625 13.71875 
L 56.890625 27.875 
L 45.40625 27.875 
L 45.40625 40.484375 
L 74.703125 40.484375 
z
" id="DejaVuSans-Bold-71"/>
      </defs>
      <use xlink:href="#DejaVuSans-Bold-69"/>
      <use x="68.310547" xlink:href="#DejaVuSans-Bold-67"/>
      <use x="141.699219" xlink:href="#DejaVuSans-Bold-71"/>
     </g>
    </g>
    <g id="line2d_4">
     <path d="M 19.280672 27.421465 
L 35.940672 27.421465 
" style="fill:none;stroke:#ff1493;stroke-width:3;"/>
    </g>
    <g id="text_10">
     <!-- R-peaks -->
     <g transform="translate(42.604672 30.336965)scale(0.0833 -0.0833)">
      <defs>
       <path d="M 35.890625 40.578125 
Q 41.796875 40.578125 44.359375 42.765625 
Q 46.921875 44.96875 46.921875 50 
Q 46.921875 54.984375 44.359375 57.125 
Q 41.796875 59.28125 35.890625 59.28125 
L 27.984375 59.28125 
L 27.984375 40.578125 
z
M 27.984375 27.59375 
L 27.984375 0 
L 9.1875 0 
L 9.1875 72.90625 
L 37.890625 72.90625 
Q 52.296875 72.90625 59 68.0625 
Q 65.71875 63.234375 65.71875 52.78125 
Q 65.71875 45.5625 62.21875 40.921875 
Q 58.734375 36.28125 51.703125 34.078125 
Q 55.5625 33.203125 58.609375 30.09375 
Q 61.671875 27 64.796875 20.703125 
L 75 0 
L 54.984375 0 
L 46.09375 18.109375 
Q 43.40625 23.578125 40.640625 25.578125 
Q 37.890625 27.59375 33.296875 27.59375 
z
" id="DejaVuSans-Bold-82"/>
       <path d="M 5.421875 35.890625 
L 36.078125 35.890625 
L 36.078125 21.6875 
L 5.421875 21.6875 
z
" id="DejaVuSans-Bold-45"/>
       <path d="M 25.875 7.90625 
L 25.875 -20.796875 
L 8.40625 -20.796875 
L 8.40625 54.6875 
L 25.875 54.6875 
L 25.875 46.6875 
Q 29.5 51.46875 33.890625 53.734375 
Q 38.28125 56 44 56 
Q 54.109375 56 60.59375 47.96875 
Q 67.09375 39.9375 67.09375 27.296875 
Q 67.09375 14.65625 60.59375 6.609375 
Q 54.109375 -1.421875 44 -1.421875 
Q 38.28125 -1.421875 33.890625 0.84375 
Q 29.5 3.125 25.875 7.90625 
z
M 37.5 43.3125 
Q 31.890625 43.3125 28.875 39.1875 
Q 25.875 35.0625 25.875 27.296875 
Q 25.875 19.53125 28.875 15.40625 
Q 31.890625 11.28125 37.5 11.28125 
Q 43.109375 11.28125 46.0625 15.375 
Q 49.03125 19.484375 49.03125 27.296875 
Q 49.03125 35.109375 46.0625 39.203125 
Q 43.109375 43.3125 37.5 43.3125 
z
" id="DejaVuSans-Bold-112"/>
       <path d="M 62.984375 27.484375 
L 62.984375 22.515625 
L 22.125 22.515625 
Q 22.75 16.359375 26.5625 13.28125 
Q 30.375 10.203125 37.203125 10.203125 
Q 42.71875 10.203125 48.5 11.84375 
Q 54.296875 13.484375 60.40625 16.796875 
L 60.40625 3.328125 
Q 54.203125 0.984375 48 -0.21875 
Q 41.796875 -1.421875 35.59375 -1.421875 
Q 20.75 -1.421875 12.515625 6.125 
Q 4.296875 13.671875 4.296875 27.296875 
Q 4.296875 40.671875 12.375 48.328125 
Q 20.453125 56 34.625 56 
Q 47.515625 56 55.25 48.234375 
Q 62.984375 40.484375 62.984375 27.484375 
z
M 45.015625 33.296875 
Q 45.015625 38.28125 42.109375 41.328125 
Q 39.203125 44.390625 34.515625 44.390625 
Q 29.4375 44.390625 26.265625 41.53125 
Q 23.09375 38.671875 22.3125 33.296875 
z
" id="DejaVuSans-Bold-101"/>
       <path d="M 32.90625 24.609375 
Q 27.4375 24.609375 24.671875 22.75 
Q 21.921875 20.90625 21.921875 17.28125 
Q 21.921875 13.96875 24.140625 12.078125 
Q 26.375 10.203125 30.328125 10.203125 
Q 35.25 10.203125 38.625 13.734375 
Q 42 17.28125 42 22.609375 
L 42 24.609375 
z
M 59.625 31.203125 
L 59.625 0 
L 42 0 
L 42 8.109375 
Q 38.484375 3.125 34.078125 0.84375 
Q 29.6875 -1.421875 23.390625 -1.421875 
Q 14.890625 -1.421875 9.59375 3.53125 
Q 4.296875 8.5 4.296875 16.40625 
Q 4.296875 26.03125 10.90625 30.515625 
Q 17.53125 35.015625 31.6875 35.015625 
L 42 35.015625 
L 42 36.375 
Q 42 40.53125 38.71875 42.453125 
Q 35.453125 44.390625 28.515625 44.390625 
Q 22.90625 44.390625 18.0625 43.265625 
Q 13.234375 42.140625 9.078125 39.890625 
L 9.078125 53.21875 
Q 14.703125 54.59375 20.359375 55.296875 
Q 26.03125 56 31.6875 56 
Q 46.484375 56 53.046875 50.171875 
Q 59.625 44.34375 59.625 31.203125 
z
" id="DejaVuSans-Bold-97"/>
       <path d="M 8.40625 75.984375 
L 25.875 75.984375 
L 25.875 34.625 
L 46 54.6875 
L 66.3125 54.6875 
L 39.59375 29.59375 
L 68.40625 0 
L 47.21875 0 
L 25.875 22.796875 
L 25.875 0 
L 8.40625 0 
z
" id="DejaVuSans-Bold-107"/>
       <path d="M 51.125 52.984375 
L 51.125 39.703125 
Q 45.515625 42.046875 40.28125 43.21875 
Q 35.0625 44.390625 30.421875 44.390625 
Q 25.4375 44.390625 23.015625 43.140625 
Q 20.609375 41.890625 20.609375 39.3125 
Q 20.609375 37.203125 22.4375 36.078125 
Q 24.265625 34.96875 29 34.421875 
L 32.078125 33.984375 
Q 45.515625 32.28125 50.140625 28.375 
Q 54.78125 24.46875 54.78125 16.109375 
Q 54.78125 7.375 48.328125 2.96875 
Q 41.890625 -1.421875 29.109375 -1.421875 
Q 23.6875 -1.421875 17.890625 -0.5625 
Q 12.109375 0.296875 6 2 
L 6 15.28125 
Q 11.234375 12.75 16.71875 11.46875 
Q 22.21875 10.203125 27.875 10.203125 
Q 33.015625 10.203125 35.59375 11.609375 
Q 38.1875 13.03125 38.1875 15.828125 
Q 38.1875 18.171875 36.40625 19.3125 
Q 34.625 20.453125 29.296875 21.09375 
L 26.21875 21.484375 
Q 14.546875 22.953125 9.859375 26.90625 
Q 5.171875 30.859375 5.171875 38.921875 
Q 5.171875 47.609375 11.125 51.796875 
Q 17.09375 56 29.390625 56 
Q 34.234375 56 39.546875 55.265625 
Q 44.875 54.546875 51.125 52.984375 
z
" id="DejaVuSans-Bold-115"/>
      </defs>
      <use xlink:href="#DejaVuSans-Bold-82"/>
      <use x="77.001953" xlink:href="#DejaVuSans-Bold-45"/>
      <use x="118.505859" xlink:href="#DejaVuSans-Bold-112"/>
      <use x="190.087891" xlink:href="#DejaVuSans-Bold-101"/>
      <use x="257.910156" xlink:href="#DejaVuSans-Bold-97"/>
      <use x="325.390625" xlink:href="#DejaVuSans-Bold-107"/>
      <use x="391.894531" xlink:href="#DejaVuSans-Bold-115"/>
     </g>
    </g>
   </g>
  </g>
  <g id="axes_2">
   <g id="matplotlib.axis_1">
    <g id="xtick_1">
     <g id="line2d_5">
      <defs>
       <path d="M 0 0 
L 0 3.5 
" id="ma4d4beb7cc" style="stroke:#000000;stroke-width:0.8;"/>
      </defs>
      <g>
       <use style="stroke:#000000;stroke-width:0.8;" x="65.789631" xlink:href="#ma4d4beb7cc" y="263.026125"/>
      </g>
     </g>
     <g id="text_11">
      <!-- 0 -->
      <g transform="translate(62.310724 277.624563)scale(0.1 -0.1)">
       <use xlink:href="#DejaVuSans-Bold-48"/>
      </g>
     </g>
    </g>
    <g id="xtick_2">
     <g id="line2d_6">
      <g>
       <use style="stroke:#000000;stroke-width:0.8;" x="130.091807" xlink:href="#ma4d4beb7cc" y="263.026125"/>
      </g>
     </g>
     <g id="text_12">
      <!-- 1 -->
      <g transform="translate(126.612901 277.624563)scale(0.1 -0.1)">
       <use xlink:href="#DejaVuSans-Bold-49"/>
      </g>
     </g>
    </g>
    <g id="xtick_3">
     <g id="line2d_7">
      <g>
       <use style="stroke:#000000;stroke-width:0.8;" x="194.393984" xlink:href="#ma4d4beb7cc" y="263.026125"/>
      </g>
     </g>
     <g id="text_13">
      <!-- 2 -->
      <g transform="translate(190.915078 277.624563)scale(0.1 -0.1)">
       <defs>
        <path d="M 28.8125 13.8125 
L 60.890625 13.8125 
L 60.890625 0 
L 7.90625 0 
L 7.90625 13.8125 
L 34.515625 37.3125 
Q 38.09375 40.53125 39.796875 43.609375 
Q 41.5 46.6875 41.5 50 
Q 41.5 55.125 38.0625 58.25 
Q 34.625 61.375 28.90625 61.375 
Q 24.515625 61.375 19.28125 59.5 
Q 14.0625 57.625 8.109375 53.90625 
L 8.109375 69.921875 
Q 14.453125 72.015625 20.65625 73.109375 
Q 26.859375 74.21875 32.8125 74.21875 
Q 45.90625 74.21875 53.15625 68.453125 
Q 60.40625 62.703125 60.40625 52.390625 
Q 60.40625 46.4375 57.328125 41.28125 
Q 54.25 36.140625 44.390625 27.484375 
z
" id="DejaVuSans-Bold-50"/>
       </defs>
       <use xlink:href="#DejaVuSans-Bold-50"/>
      </g>
     </g>
    </g>
    <g id="xtick_4">
     <g id="line2d_8">
      <g>
       <use style="stroke:#000000;stroke-width:0.8;" x="258.696161" xlink:href="#ma4d4beb7cc" y="263.026125"/>
      </g>
     </g>
     <g id="text_14">
      <!-- 3 -->
      <g transform="translate(255.217255 277.624563)scale(0.1 -0.1)">
       <defs>
        <path d="M 46.578125 39.3125 
Q 53.953125 37.40625 57.78125 32.6875 
Q 61.625 27.984375 61.625 20.703125 
Q 61.625 9.859375 53.3125 4.21875 
Q 45.015625 -1.421875 29.109375 -1.421875 
Q 23.484375 -1.421875 17.84375 -0.515625 
Q 12.203125 0.390625 6.6875 2.203125 
L 6.6875 16.703125 
Q 11.96875 14.0625 17.15625 12.71875 
Q 22.359375 11.375 27.390625 11.375 
Q 34.859375 11.375 38.84375 13.953125 
Q 42.828125 16.546875 42.828125 21.390625 
Q 42.828125 26.375 38.75 28.9375 
Q 34.671875 31.5 26.703125 31.5 
L 19.1875 31.5 
L 19.1875 43.609375 
L 27.09375 43.609375 
Q 34.1875 43.609375 37.640625 45.828125 
Q 41.109375 48.046875 41.109375 52.59375 
Q 41.109375 56.78125 37.734375 59.078125 
Q 34.375 61.375 28.21875 61.375 
Q 23.6875 61.375 19.046875 60.34375 
Q 14.40625 59.328125 9.8125 57.328125 
L 9.8125 71.09375 
Q 15.375 72.65625 20.84375 73.4375 
Q 26.3125 74.21875 31.59375 74.21875 
Q 45.796875 74.21875 52.84375 69.546875 
Q 59.90625 64.890625 59.90625 55.515625 
Q 59.90625 49.125 56.53125 45.046875 
Q 53.171875 40.96875 46.578125 39.3125 
z
" id="DejaVuSans-Bold-51"/>
       </defs>
       <use xlink:href="#DejaVuSans-Bold-51"/>
      </g>
     </g>
    </g>
    <g id="xtick_5">
     <g id="line2d_9">
      <g>
       <use style="stroke:#000000;stroke-width:0.8;" x="322.998337" xlink:href="#ma4d4beb7cc" y="263.026125"/>
      </g>
     </g>
     <g id="text_15">
      <!-- 4 -->
      <g transform="translate(319.519431 277.624563)scale(0.1 -0.1)">
       <defs>
        <path d="M 36.8125 57.421875 
L 16.21875 26.90625 
L 36.8125 26.90625 
z
M 33.6875 72.90625 
L 54.59375 72.90625 
L 54.59375 26.90625 
L 64.984375 26.90625 
L 64.984375 13.28125 
L 54.59375 13.28125 
L 54.59375 0 
L 36.8125 0 
L 36.8125 13.28125 
L 4.5 13.28125 
L 4.5 29.390625 
z
" id="DejaVuSans-Bold-52"/>
       </defs>
       <use xlink:href="#DejaVuSans-Bold-52"/>
      </g>
     </g>
    </g>
    <g id="xtick_6">
     <g id="line2d_10">
      <g>
       <use style="stroke:#000000;stroke-width:0.8;" x="387.300514" xlink:href="#ma4d4beb7cc" y="263.026125"/>
      </g>
     </g>
     <g id="text_16">
      <!-- 5 -->
      <g transform="translate(383.821608 277.624563)scale(0.1 -0.1)">
       <defs>
        <path d="M 10.59375 72.90625 
L 57.328125 72.90625 
L 57.328125 59.078125 
L 25.59375 59.078125 
L 25.59375 47.796875 
Q 27.734375 48.390625 29.90625 48.703125 
Q 32.078125 49.03125 34.421875 49.03125 
Q 47.75 49.03125 55.171875 42.359375 
Q 62.59375 35.6875 62.59375 23.78125 
Q 62.59375 11.96875 54.515625 5.265625 
Q 46.4375 -1.421875 32.078125 -1.421875 
Q 25.875 -1.421875 19.796875 -0.21875 
Q 13.71875 0.984375 7.71875 3.421875 
L 7.71875 18.21875 
Q 13.671875 14.796875 19.015625 13.078125 
Q 24.359375 11.375 29.109375 11.375 
Q 35.9375 11.375 39.859375 14.71875 
Q 43.796875 18.0625 43.796875 23.78125 
Q 43.796875 29.546875 39.859375 32.859375 
Q 35.9375 36.1875 29.109375 36.1875 
Q 25.046875 36.1875 20.453125 35.125 
Q 15.875 34.078125 10.59375 31.890625 
z
" id="DejaVuSans-Bold-53"/>
       </defs>
       <use xlink:href="#DejaVuSans-Bold-53"/>
      </g>
     </g>
    </g>
    <g id="text_17">
     <!-- Seconds -->
     <g transform="translate(220.20125 292.822375)scale(0.12 -0.12)">
      <defs>
       <path d="M 59.90625 70.609375 
L 59.90625 55.171875 
Q 53.90625 57.859375 48.1875 59.21875 
Q 42.484375 60.59375 37.40625 60.59375 
Q 30.671875 60.59375 27.4375 58.734375 
Q 24.21875 56.890625 24.21875 52.984375 
Q 24.21875 50.046875 26.390625 48.40625 
Q 28.5625 46.78125 34.28125 45.609375 
L 42.28125 44 
Q 54.4375 41.546875 59.5625 36.5625 
Q 64.703125 31.59375 64.703125 22.40625 
Q 64.703125 10.359375 57.546875 4.46875 
Q 50.390625 -1.421875 35.6875 -1.421875 
Q 28.765625 -1.421875 21.78125 -0.09375 
Q 14.796875 1.21875 7.8125 3.8125 
L 7.8125 19.671875 
Q 14.796875 15.96875 21.3125 14.078125 
Q 27.828125 12.203125 33.890625 12.203125 
Q 40.046875 12.203125 43.3125 14.25 
Q 46.578125 16.3125 46.578125 20.125 
Q 46.578125 23.53125 44.359375 25.390625 
Q 42.140625 27.25 35.5 28.71875 
L 28.21875 30.328125 
Q 17.28125 32.671875 12.21875 37.796875 
Q 7.171875 42.921875 7.171875 51.609375 
Q 7.171875 62.5 14.203125 68.359375 
Q 21.234375 74.21875 34.421875 74.21875 
Q 40.4375 74.21875 46.78125 73.3125 
Q 53.125 72.40625 59.90625 70.609375 
z
" id="DejaVuSans-Bold-83"/>
       <path d="M 52.59375 52.984375 
L 52.59375 38.71875 
Q 49.03125 41.15625 45.4375 42.328125 
Q 41.84375 43.5 37.984375 43.5 
Q 30.671875 43.5 26.59375 39.234375 
Q 22.515625 34.96875 22.515625 27.296875 
Q 22.515625 19.625 26.59375 15.34375 
Q 30.671875 11.078125 37.984375 11.078125 
Q 42.09375 11.078125 45.78125 12.296875 
Q 49.46875 13.53125 52.59375 15.921875 
L 52.59375 1.609375 
Q 48.484375 0.09375 44.265625 -0.65625 
Q 40.046875 -1.421875 35.796875 -1.421875 
Q 21 -1.421875 12.640625 6.171875 
Q 4.296875 13.765625 4.296875 27.296875 
Q 4.296875 40.828125 12.640625 48.40625 
Q 21 56 35.796875 56 
Q 40.09375 56 44.265625 55.25 
Q 48.4375 54.5 52.59375 52.984375 
z
" id="DejaVuSans-Bold-99"/>
       <path d="M 34.421875 43.5 
Q 28.609375 43.5 25.5625 39.328125 
Q 22.515625 35.15625 22.515625 27.296875 
Q 22.515625 19.4375 25.5625 15.25 
Q 28.609375 11.078125 34.421875 11.078125 
Q 40.140625 11.078125 43.15625 15.25 
Q 46.1875 19.4375 46.1875 27.296875 
Q 46.1875 35.15625 43.15625 39.328125 
Q 40.140625 43.5 34.421875 43.5 
z
M 34.421875 56 
Q 48.53125 56 56.46875 48.375 
Q 64.40625 40.765625 64.40625 27.296875 
Q 64.40625 13.8125 56.46875 6.1875 
Q 48.53125 -1.421875 34.421875 -1.421875 
Q 20.265625 -1.421875 12.28125 6.1875 
Q 4.296875 13.8125 4.296875 27.296875 
Q 4.296875 40.765625 12.28125 48.375 
Q 20.265625 56 34.421875 56 
z
" id="DejaVuSans-Bold-111"/>
       <path d="M 63.375 33.296875 
L 63.375 0 
L 45.796875 0 
L 45.796875 5.421875 
L 45.796875 25.484375 
Q 45.796875 32.5625 45.484375 35.25 
Q 45.171875 37.9375 44.390625 39.203125 
Q 43.359375 40.921875 41.59375 41.875 
Q 39.84375 42.828125 37.59375 42.828125 
Q 32.125 42.828125 29 38.59375 
Q 25.875 34.375 25.875 26.90625 
L 25.875 0 
L 8.40625 0 
L 8.40625 54.6875 
L 25.875 54.6875 
L 25.875 46.6875 
Q 29.828125 51.46875 34.265625 53.734375 
Q 38.71875 56 44.09375 56 
Q 53.5625 56 58.46875 50.1875 
Q 63.375 44.390625 63.375 33.296875 
z
" id="DejaVuSans-Bold-110"/>
       <path d="M 45.609375 46.6875 
L 45.609375 75.984375 
L 63.1875 75.984375 
L 63.1875 0 
L 45.609375 0 
L 45.609375 7.90625 
Q 42 3.078125 37.640625 0.828125 
Q 33.296875 -1.421875 27.59375 -1.421875 
Q 17.484375 -1.421875 10.984375 6.609375 
Q 4.5 14.65625 4.5 27.296875 
Q 4.5 39.9375 10.984375 47.96875 
Q 17.484375 56 27.59375 56 
Q 33.25 56 37.625 53.734375 
Q 42 51.46875 45.609375 46.6875 
z
M 34.078125 11.28125 
Q 39.703125 11.28125 42.65625 15.375 
Q 45.609375 19.484375 45.609375 27.296875 
Q 45.609375 35.109375 42.65625 39.203125 
Q 39.703125 43.3125 34.078125 43.3125 
Q 28.515625 43.3125 25.5625 39.203125 
Q 22.609375 35.109375 22.609375 27.296875 
Q 22.609375 19.484375 25.5625 15.375 
Q 28.515625 11.28125 34.078125 11.28125 
z
" id="DejaVuSans-Bold-100"/>
      </defs>
      <use xlink:href="#DejaVuSans-Bold-83"/>
      <use x="72.021484" xlink:href="#DejaVuSans-Bold-101"/>
      <use x="139.84375" xlink:href="#DejaVuSans-Bold-99"/>
      <use x="199.121094" xlink:href="#DejaVuSans-Bold-111"/>
      <use x="267.822266" xlink:href="#DejaVuSans-Bold-110"/>
      <use x="339.013672" xlink:href="#DejaVuSans-Bold-100"/>
      <use x="410.595703" xlink:href="#DejaVuSans-Bold-115"/>
     </g>
    </g>
   </g>
   <g id="matplotlib.axis_2">
    <g id="ytick_1">
     <g id="line2d_11">
      <path clip-path="url(#pa1e8663490)" d="M 47.527813 261.328463 
L 449.287813 261.328463 
" style="fill:none;stroke:#b0b0b0;stroke-linecap:square;stroke-opacity:0.2;stroke-width:0.8;"/>
     </g>
     <g id="line2d_12">
      <defs>
       <path d="M 0 0 
L -3.5 0 
" id="m5a15a10aba" style="stroke:#000000;stroke-width:0.8;"/>
      </defs>
      <g>
       <use style="stroke:#000000;stroke-width:0.8;" x="47.527813" xlink:href="#m5a15a10aba" y="261.328463"/>
      </g>
     </g>
     <g id="text_18">
      <!-- 0.6 -->
      <g transform="translate(22.81375 265.127682)scale(0.1 -0.1)">
       <use xlink:href="#DejaVuSans-Bold-48"/>
       <use x="69.580078" xlink:href="#DejaVuSans-Bold-46"/>
       <use x="107.568359" xlink:href="#DejaVuSans-Bold-54"/>
      </g>
     </g>
    </g>
    <g id="ytick_2">
     <g id="line2d_13">
      <path clip-path="url(#pa1e8663490)" d="M 47.527813 223.602643 
L 449.287813 223.602643 
" style="fill:none;stroke:#b0b0b0;stroke-linecap:square;stroke-opacity:0.2;stroke-width:0.8;"/>
     </g>
     <g id="line2d_14">
      <g>
       <use style="stroke:#000000;stroke-width:0.8;" x="47.527813" xlink:href="#m5a15a10aba" y="223.602643"/>
      </g>
     </g>
     <g id="text_19">
      <!-- 0.7 -->
      <g transform="translate(22.81375 227.401862)scale(0.1 -0.1)">
       <use xlink:href="#DejaVuSans-Bold-48"/>
       <use x="69.580078" xlink:href="#DejaVuSans-Bold-46"/>
       <use x="107.568359" xlink:href="#DejaVuSans-Bold-55"/>
      </g>
     </g>
    </g>
    <g id="ytick_3">
     <g id="line2d_15">
      <path clip-path="url(#pa1e8663490)" d="M 47.527813 185.876823 
L 449.287813 185.876823 
" style="fill:none;stroke:#b0b0b0;stroke-linecap:square;stroke-opacity:0.2;stroke-width:0.8;"/>
     </g>
     <g id="line2d_16">
      <g>
       <use style="stroke:#000000;stroke-width:0.8;" x="47.527813" xlink:href="#m5a15a10aba" y="185.876823"/>
      </g>
     </g>
     <g id="text_20">
      <!-- 0.8 -->
      <g transform="translate(22.81375 189.676042)scale(0.1 -0.1)">
       <use xlink:href="#DejaVuSans-Bold-48"/>
       <use x="69.580078" xlink:href="#DejaVuSans-Bold-46"/>
       <use x="107.568359" xlink:href="#DejaVuSans-Bold-56"/>
      </g>
     </g>
    </g>
    <g id="ytick_4">
     <g id="line2d_17">
      <path clip-path="url(#pa1e8663490)" d="M 47.527813 148.151003 
L 449.287813 148.151003 
" style="fill:none;stroke:#b0b0b0;stroke-linecap:square;stroke-opacity:0.2;stroke-width:0.8;"/>
     </g>
     <g id="line2d_18">
      <g>
       <use style="stroke:#000000;stroke-width:0.8;" x="47.527813" xlink:href="#m5a15a10aba" y="148.151003"/>
      </g>
     </g>
     <g id="text_21">
      <!-- 0.9 -->
      <g transform="translate(22.81375 151.950222)scale(0.1 -0.1)">
       <use xlink:href="#DejaVuSans-Bold-48"/>
       <use x="69.580078" xlink:href="#DejaVuSans-Bold-46"/>
       <use x="107.568359" xlink:href="#DejaVuSans-Bold-57"/>
      </g>
     </g>
    </g>
    <g id="text_22">
     <!-- Heart period (sec) -->
     <g transform="translate(16.318125 264.476255)rotate(-90)scale(0.12 -0.12)">
      <defs>
       <path d="M 9.1875 72.90625 
L 27.984375 72.90625 
L 27.984375 45.125 
L 55.71875 45.125 
L 55.71875 72.90625 
L 74.515625 72.90625 
L 74.515625 0 
L 55.71875 0 
L 55.71875 30.90625 
L 27.984375 30.90625 
L 27.984375 0 
L 9.1875 0 
z
" id="DejaVuSans-Bold-72"/>
       <path d="M 49.03125 39.796875 
Q 46.734375 40.875 44.453125 41.375 
Q 42.1875 41.890625 39.890625 41.890625 
Q 33.15625 41.890625 29.515625 37.5625 
Q 25.875 33.25 25.875 25.203125 
L 25.875 0 
L 8.40625 0 
L 8.40625 54.6875 
L 25.875 54.6875 
L 25.875 45.703125 
Q 29.25 51.078125 33.609375 53.53125 
Q 37.984375 56 44.09375 56 
Q 44.96875 56 45.984375 55.921875 
Q 47.015625 55.859375 48.96875 55.609375 
z
" id="DejaVuSans-Bold-114"/>
       <path d="M 27.484375 70.21875 
L 27.484375 54.6875 
L 45.515625 54.6875 
L 45.515625 42.1875 
L 27.484375 42.1875 
L 27.484375 19 
Q 27.484375 15.1875 29 13.84375 
Q 30.515625 12.5 35.015625 12.5 
L 44 12.5 
L 44 0 
L 29 0 
Q 18.65625 0 14.328125 4.3125 
Q 10.015625 8.640625 10.015625 19 
L 10.015625 42.1875 
L 1.3125 42.1875 
L 1.3125 54.6875 
L 10.015625 54.6875 
L 10.015625 70.21875 
z
" id="DejaVuSans-Bold-116"/>
       <path id="DejaVuSans-Bold-32"/>
       <path d="M 8.40625 54.6875 
L 25.875 54.6875 
L 25.875 0 
L 8.40625 0 
z
M 8.40625 75.984375 
L 25.875 75.984375 
L 25.875 61.71875 
L 8.40625 61.71875 
z
" id="DejaVuSans-Bold-105"/>
       <path d="M 37.703125 -13.1875 
L 23.1875 -13.1875 
Q 15.71875 -1.125 12.15625 9.734375 
Q 8.59375 20.609375 8.59375 31.296875 
Q 8.59375 42 12.171875 52.953125 
Q 15.765625 63.921875 23.1875 75.875 
L 37.703125 75.875 
Q 31.453125 64.3125 28.328125 53.25 
Q 25.203125 42.1875 25.203125 31.390625 
Q 25.203125 20.609375 28.296875 9.515625 
Q 31.390625 -1.5625 37.703125 -13.1875 
z
" id="DejaVuSans-Bold-40"/>
       <path d="M 8.015625 -13.1875 
Q 14.265625 -1.5625 17.390625 9.515625 
Q 20.515625 20.609375 20.515625 31.390625 
Q 20.515625 42.1875 17.390625 53.25 
Q 14.265625 64.3125 8.015625 75.875 
L 22.515625 75.875 
Q 29.9375 63.921875 33.515625 52.953125 
Q 37.109375 42 37.109375 31.296875 
Q 37.109375 20.609375 33.546875 9.734375 
Q 29.984375 -1.125 22.515625 -13.1875 
z
" id="DejaVuSans-Bold-41"/>
      </defs>
      <use xlink:href="#DejaVuSans-Bold-72"/>
      <use x="83.691406" xlink:href="#DejaVuSans-Bold-101"/>
      <use x="151.513672" xlink:href="#DejaVuSans-Bold-97"/>
      <use x="218.994141" xlink:href="#DejaVuSans-Bold-114"/>
      <use x="268.310547" xlink:href="#DejaVuSans-Bold-116"/>
      <use x="316.113281" xlink:href="#DejaVuSans-Bold-32"/>
      <use x="350.927734" xlink:href="#DejaVuSans-Bold-112"/>
      <use x="422.509766" xlink:href="#DejaVuSans-Bold-101"/>
      <use x="490.332031" xlink:href="#DejaVuSans-Bold-114"/>
      <use x="539.648438" xlink:href="#DejaVuSans-Bold-105"/>
      <use x="573.925781" xlink:href="#DejaVuSans-Bold-111"/>
      <use x="642.626953" xlink:href="#DejaVuSans-Bold-100"/>
      <use x="714.208984" xlink:href="#DejaVuSans-Bold-32"/>
      <use x="749.023438" xlink:href="#DejaVuSans-Bold-40"/>
      <use x="794.726562" xlink:href="#DejaVuSans-Bold-115"/>
      <use x="854.248047" xlink:href="#DejaVuSans-Bold-101"/>
      <use x="922.070312" xlink:href="#DejaVuSans-Bold-99"/>
      <use x="981.347656" xlink:href="#DejaVuSans-Bold-41"/>
     </g>
    </g>
   </g>
   <g id="LineCollection_2">
    <path clip-path="url(#pa1e8663490)" d="M 88.938414 257.555881 
L 88.938414 148.151003 
" style="fill:none;stroke:#ff1493;stroke-opacity:0.2;stroke-width:3;"/>
    <path clip-path="url(#pa1e8663490)" d="M 128.162742 257.555881 
L 128.162742 148.151003 
" style="fill:none;stroke:#ff1493;stroke-opacity:0.2;stroke-width:3;"/>
    <path clip-path="url(#pa1e8663490)" d="M 173.174266 257.555881 
L 173.174266 148.151003 
" style="fill:none;stroke:#ff1493;stroke-opacity:0.2;stroke-width:3;"/>
    <path clip-path="url(#pa1e8663490)" d="M 216.899746 257.555881 
L 216.899746 148.151003 
" style="fill:none;stroke:#ff1493;stroke-opacity:0.2;stroke-width:3;"/>
    <path clip-path="url(#pa1e8663490)" d="M 261.268248 257.555881 
L 261.268248 148.151003 
" style="fill:none;stroke:#ff1493;stroke-opacity:0.2;stroke-width:3;"/>
    <path clip-path="url(#pa1e8663490)" d="M 306.922793 257.555881 
L 306.922793 148.151003 
" style="fill:none;stroke:#ff1493;stroke-opacity:0.2;stroke-width:3;"/>
    <path clip-path="url(#pa1e8663490)" d="M 357.078491 257.555881 
L 357.078491 148.151003 
" style="fill:none;stroke:#ff1493;stroke-opacity:0.2;stroke-width:3;"/>
    <path clip-path="url(#pa1e8663490)" d="M 414.95045 257.555881 
L 414.95045 148.151003 
" style="fill:none;stroke:#ff1493;stroke-opacity:0.2;stroke-width:3;"/>
   </g>
   <g id="line2d_19">
    <path clip-path="url(#pa1e8663490)" d="M 65.789631 214.440658 
L 88.938414 214.440658 
L 128.162742 257.555881 
L 173.174266 223.602643 
L 216.899746 231.147807 
L 262.554291 227.162685 
L 306.922793 219.830061 
L 357.078491 193.421987 
L 414.95045 148.151003 
L 431.025994 148.151003 
L 431.025994 148.151003 
" style="fill:none;stroke:#c71585;stroke-linecap:square;stroke-width:2.5;"/>
   </g>
   <g id="text_23">
    <!-- B -->
    <g transform="translate(449.287813 142.680759)scale(0.12 -0.12)">
     <defs>
      <path d="M 19.671875 34.8125 
L 19.671875 8.109375 
L 35.5 8.109375 
Q 43.453125 8.109375 47.28125 11.40625 
Q 51.125 14.703125 51.125 21.484375 
Q 51.125 28.328125 47.28125 31.5625 
Q 43.453125 34.8125 35.5 34.8125 
z
M 19.671875 64.796875 
L 19.671875 42.828125 
L 34.28125 42.828125 
Q 41.5 42.828125 45.03125 45.53125 
Q 48.578125 48.25 48.578125 53.8125 
Q 48.578125 59.328125 45.03125 62.0625 
Q 41.5 64.796875 34.28125 64.796875 
z
M 9.8125 72.90625 
L 35.015625 72.90625 
Q 46.296875 72.90625 52.390625 68.21875 
Q 58.5 63.53125 58.5 54.890625 
Q 58.5 48.1875 55.375 44.234375 
Q 52.25 40.28125 46.1875 39.3125 
Q 53.46875 37.75 57.5 32.78125 
Q 61.53125 27.828125 61.53125 20.40625 
Q 61.53125 10.640625 54.890625 5.3125 
Q 48.25 0 35.984375 0 
L 9.8125 0 
z
" id="DejaVuSans-66"/>
     </defs>
     <use xlink:href="#DejaVuSans-66"/>
    </g>
   </g>
  </g>
  <g id="patch_3">
   <path d="M 92.053097 21.788369 
Q 108.546863 21.788369 125.04063 21.788369 
" style="fill:none;stroke:#000000;stroke-linecap:round;"/>
   <path d="M 96.053097 23.788369 
L 92.053097 21.788369 
L 96.053097 19.788369 
" style="fill:none;stroke:#000000;stroke-linecap:round;"/>
   <path d="M 121.04063 19.788369 
L 125.04063 21.788369 
L 121.04063 23.788369 
" style="fill:none;stroke:#000000;stroke-linecap:round;"/>
  </g>
  <g id="patch_4">
   <path d="M 108.716666 23.784996 
Q 118.35677 139.673445 127.904191 254.447708 
" style="fill:none;stroke:#000000;stroke-linecap:round;"/>
   <path d="M 129.565715 250.29568 
L 127.904191 254.447708 
L 125.579483 250.627272 
" style="fill:none;stroke:#000000;stroke-linecap:round;"/>
  </g>
  <g id="patch_5">
   <path d="M 131.278053 21.788369 
Q 150.668185 21.788369 170.058317 21.788369 
" style="fill:none;stroke:#000000;stroke-linecap:round;"/>
   <path d="M 135.278053 23.788369 
L 131.278053 21.788369 
L 135.278053 19.788369 
" style="fill:none;stroke:#000000;stroke-linecap:round;"/>
   <path d="M 166.058317 19.788369 
L 170.058317 21.788369 
L 166.058317 23.788369 
" style="fill:none;stroke:#000000;stroke-linecap:round;"/>
  </g>
  <g id="patch_6">
   <path d="M 150.890004 23.774609 
Q 161.921455 122.696133 172.828994 220.506511 
" style="fill:none;stroke:#000000;stroke-linecap:round;"/>
   <path d="M 174.373352 216.309493 
L 172.828994 220.506511 
L 170.397994 216.752814 
" style="fill:none;stroke:#000000;stroke-linecap:round;"/>
  </g>
  <g id="patch_7">
   <path d="M 176.291225 21.788369 
Q 195.036854 21.788369 213.782484 21.788369 
" style="fill:none;stroke:#000000;stroke-linecap:round;"/>
   <path d="M 180.291225 23.788369 
L 176.291225 21.788369 
L 180.291225 19.788369 
" style="fill:none;stroke:#000000;stroke-linecap:round;"/>
   <path d="M 209.782484 19.788369 
L 213.782484 21.788369 
L 209.782484 23.788369 
" style="fill:none;stroke:#000000;stroke-linecap:round;"/>
  </g>
  <g id="patch_8">
   <path d="M 195.244838 23.778587 
Q 205.968372 126.468055 216.575786 228.045536 
" style="fill:none;stroke:#000000;stroke-linecap:round;"/>
   <path d="M 218.149521 223.859445 
L 216.575786 228.045536 
L 214.171154 224.274893 
" style="fill:none;stroke:#000000;stroke-linecap:round;"/>
  </g>
  <g id="patch_9">
   <path d="M 220.01902 21.788369 
Q 239.08517 21.788369 258.151319 21.788369 
" style="fill:none;stroke:#000000;stroke-linecap:round;"/>
   <path d="M 224.01902 23.788369 
L 220.01902 21.788369 
L 224.01902 19.788369 
" style="fill:none;stroke:#000000;stroke-linecap:round;"/>
   <path d="M 254.151319 19.788369 
L 258.151319 21.788369 
L 254.151319 23.788369 
" style="fill:none;stroke:#000000;stroke-linecap:round;"/>
  </g>
  <g id="patch_10">
   <path d="M 239.29827 23.774094 
Q 250.175816 124.57896 260.933415 224.272245 
" style="fill:none;stroke:#000000;stroke-linecap:round;"/>
   <path d="M 262.492735 220.080763 
L 260.933415 224.272245 
L 258.515821 220.5099 
" style="fill:none;stroke:#000000;stroke-linecap:round;"/>
  </g>
  <g id="patch_11">
   <path d="M 264.384225 21.788369 
Q 284.09394 21.788369 303.803654 21.788369 
" style="fill:none;stroke:#000000;stroke-linecap:round;"/>
   <path d="M 268.384225 23.788369 
L 264.384225 21.788369 
L 268.384225 19.788369 
" style="fill:none;stroke:#000000;stroke-linecap:round;"/>
   <path d="M 299.803654 19.788369 
L 303.803654 21.788369 
L 299.803654 23.788369 
" style="fill:none;stroke:#000000;stroke-linecap:round;"/>
  </g>
  <g id="patch_12">
   <path d="M 284.324365 23.773742 
Q 295.508925 120.8072 306.565462 216.729979 
" style="fill:none;stroke:#000000;stroke-linecap:round;"/>
   <path d="M 308.09428 212.527275 
L 306.565462 216.729979 
L 304.12059 212.985303 
" style="fill:none;stroke:#000000;stroke-linecap:round;"/>
  </g>
  <g id="patch_13">
   <path d="M 310.039831 21.788369 
Q 331.999329 21.788369 353.958827 21.788369 
" style="fill:none;stroke:#000000;stroke-linecap:round;"/>
   <path d="M 314.039831 23.788369 
L 310.039831 21.788369 
L 314.039831 19.788369 
" style="fill:none;stroke:#000000;stroke-linecap:round;"/>
   <path d="M 349.958827 19.788369 
L 353.958827 21.788369 
L 349.958827 23.788369 
" style="fill:none;stroke:#000000;stroke-linecap:round;"/>
  </g>
  <g id="patch_14">
   <path d="M 332.289549 23.765654 
Q 344.53934 107.603624 356.627488 190.335306 
" style="fill:none;stroke:#000000;stroke-linecap:round;"/>
   <path d="M 358.028165 186.088177 
L 356.627488 190.335306 
L 354.070191 186.666487 
" style="fill:none;stroke:#000000;stroke-linecap:round;"/>
  </g>
  <g id="patch_15">
   <path d="M 360.199296 21.788369 
Q 386.015026 21.788369 411.830755 21.788369 
" style="fill:none;stroke:#000000;stroke-linecap:round;"/>
   <path d="M 364.199296 23.788369 
L 360.199296 21.788369 
L 364.199296 19.788369 
" style="fill:none;stroke:#000000;stroke-linecap:round;"/>
   <path d="M 407.830755 19.788369 
L 411.830755 21.788369 
L 407.830755 23.788369 
" style="fill:none;stroke:#000000;stroke-linecap:round;"/>
  </g>
  <g id="patch_16">
   <path d="M 386.460414 23.735791 
Q 400.482419 84.969505 414.254863 145.113393 
" style="fill:none;stroke:#000000;stroke-linecap:round;"/>
   <path d="M 415.311546 140.767887 
L 414.254863 145.113393 
L 411.412468 141.660743 
" style="fill:none;stroke:#000000;stroke-linecap:round;"/>
  </g>
 </g>
 <defs>
  <clipPath id="pe3e025b04a">
   <rect height="120.345366" width="401.76" x="47.527813" y="16.318125"/>
  </clipPath>
  <clipPath id="pa1e8663490">
   <rect height="120.345366" width="401.76" x="47.527813" y="142.680759"/>
  </clipPath>
 </defs>
</svg>
